<svg version="1.1" id="Layer_1" xmlns="http://www.w3.org/2000/svg" xmlns:xlink="http://www.w3.org/1999/xlink" x="0px" y="0px"
	 width="100%" viewBox="0 0 300 232" enable-background="new 0 0 300 232" xml:space="preserve">
<path fill="#FFFFFF" opacity="1.000000" stroke="none" 
	d="
M186.000000,233.000000 
	C124.000008,233.000000 62.500015,233.000000 1.000016,233.000000 
	C1.000011,155.666687 1.000011,78.333366 1.000005,1.000037 
	C100.999969,1.000025 200.999939,1.000025 300.999939,1.000012 
	C300.999939,78.333298 300.999939,155.666595 300.999969,232.999939 
	C262.833344,233.000000 224.666672,233.000000 186.000000,233.000000 
M125.350777,41.015728 
	C124.851669,41.315086 124.352562,41.614445 123.942177,41.913845 
	C123.942177,41.913845 123.906273,41.832703 123.272758,42.185543 
	C119.625679,45.804371 118.374924,49.688908 122.245331,54.780865 
	C123.455399,58.181286 124.665466,61.581711 125.444717,65.005852 
	C125.444717,65.005852 125.014847,65.042923 124.349617,65.012886 
	C123.905869,64.999649 123.462112,64.986404 122.539787,64.430084 
	C120.182312,63.737995 118.458252,63.803486 119.522942,67.039162 
	C119.966789,68.388077 120.495857,69.708954 121.004356,71.529541 
	C121.004356,71.529541 121.031883,72.016068 121.011368,72.693214 
	C121.336464,73.475899 121.661560,74.258583 122.005310,75.529228 
	C122.005310,75.529228 122.033157,76.016731 122.012291,76.693420 
	C122.337402,77.475273 122.662514,78.257118 123.006767,79.528511 
	C123.006767,79.528511 123.034958,80.017609 123.013496,80.693733 
	C123.338615,81.474541 123.663734,82.255341 124.008347,83.527130 
	C124.008347,83.527130 124.036774,84.017670 124.005890,84.715378 
	C123.660072,85.807083 123.314247,86.898788 122.221489,87.995926 
	C121.474731,88.010513 120.727982,88.025093 119.273773,88.023048 
	C118.845551,89.026291 118.417328,90.029541 117.998177,91.693542 
	C118.011536,92.133858 118.024902,92.574181 118.223511,93.463043 
	C118.418190,93.737625 118.675385,93.927612 119.000397,94.693542 
	C119.012779,95.133713 119.025162,95.573875 119.222908,96.463066 
	C119.417717,96.737907 119.675026,96.928284 120.011818,97.524490 
	C120.011818,97.524490 120.038506,98.014343 120.223404,98.460526 
	C120.417679,98.734955 120.676140,98.919548 121.010712,99.795807 
	C124.037071,107.877129 127.063438,115.958450 130.210297,124.922173 
	C129.771805,131.586914 129.333298,138.251648 128.427963,145.067429 
	C128.427963,145.067429 128.172821,145.486572 127.654099,145.907745 
	C125.125694,147.460495 122.597298,149.013229 119.498726,150.916122 
	C120.468246,144.845139 117.348099,142.633881 111.390564,144.284286 
	C96.692940,148.355988 81.844658,151.004608 66.491463,150.044922 
	C61.848785,149.754730 57.172642,150.000000 52.511826,150.000000 
	C47.878109,150.000000 43.244392,150.000000 38.610672,150.000000 
	C38.615925,150.418091 38.621178,150.836197 38.626431,151.254288 
	C64.920967,153.700104 91.235329,153.897446 118.625305,151.194656 
	C111.418365,156.271332 110.268822,163.555450 109.075554,170.691757 
	C108.352638,175.015167 108.398254,179.463638 108.017136,183.848862 
	C107.778748,186.591782 107.388924,189.321564 106.167885,192.004303 
	C101.704453,192.681946 96.832649,192.436813 92.849472,194.199615 
	C77.013199,201.208099 60.426991,203.107590 43.388577,203.048920 
	C38.818661,203.033188 34.239819,203.944672 29.677177,203.849625 
	C21.678043,203.682953 13.688261,203.067337 5.694561,202.639801 
	C5.664776,203.159943 5.634991,203.680099 5.605206,204.200241 
	C11.704129,204.800156 17.814577,206.003815 23.899832,205.887634 
	C42.709312,205.528595 61.519707,204.867432 80.306763,203.884323 
	C86.389343,203.566010 92.639702,202.578125 98.359283,200.590195 
	C102.042618,199.310028 108.039757,198.634903 107.611382,192.112350 
	C109.704964,194.753891 111.798546,197.395432 114.011009,200.681625 
	C114.077339,201.111740 114.143669,201.541870 114.026695,202.764343 
	C114.357224,204.497650 114.579987,206.259949 115.037201,207.959167 
	C116.869606,214.769257 125.356758,221.317230 131.987289,220.978928 
	C136.404800,220.753540 140.845795,220.559631 145.212982,219.919678 
	C148.372757,219.456635 151.283035,218.143661 151.524323,213.933105 
	C151.714355,213.645798 151.904388,213.358490 152.849472,212.991730 
	C158.436447,211.029999 164.264038,209.337677 165.971420,201.860794 
	C166.858856,201.773758 167.746307,201.686722 168.457474,202.273849 
	C168.446060,202.505859 168.434631,202.737854 168.071808,202.927734 
	C168.200897,202.945068 168.330002,202.962418 168.965134,203.425293 
	C170.436676,204.322464 171.901474,205.974625 173.380936,205.987869 
	C180.271576,206.049591 187.201370,205.966522 194.032303,205.189529 
	C195.544388,205.017532 196.712311,201.820053 198.536652,199.920120 
	C198.716003,199.645111 198.895355,199.370087 199.837723,199.311447 
	C203.198776,199.893585 206.559845,200.475723 209.974640,201.865784 
	C208.318253,205.422562 208.641800,208.584290 211.152756,211.805054 
	C212.547668,213.594254 212.760880,216.274307 214.058945,218.175873 
	C216.616470,221.922470 219.006241,227.623581 222.469589,228.486633 
	C227.852097,229.827911 234.077988,227.841385 239.927887,227.116287 
	C240.297180,227.070526 240.506882,225.737152 241.085007,224.311646 
	C243.225174,223.259338 245.563293,222.476074 247.454071,221.084869 
	C249.690338,219.439484 251.990585,217.425507 249.824280,213.526093 
	C249.876114,213.343872 249.927933,213.161667 250.539536,212.904968 
	C250.621033,212.580719 250.702545,212.256454 250.928162,211.493454 
	C250.928162,211.493454 251.070862,211.054245 251.787689,210.765457 
	C254.499039,210.211746 257.210388,209.658035 260.184814,209.737061 
	C261.360870,210.888855 262.698914,211.917603 263.683960,213.214478 
	C267.266876,217.931656 281.562622,217.845108 284.962158,212.995834 
	C285.127197,212.760376 285.040466,212.348404 285.575409,211.926636 
	C285.753937,211.645889 285.932465,211.365143 286.841339,211.011337 
	C290.534363,208.932190 295.807770,208.268646 295.001404,201.315857 
	C295.047119,200.578537 295.092834,199.841202 295.816925,198.707886 
	C296.157501,196.168716 296.498077,193.629562 296.969513,190.347488 
	C296.580353,189.206665 296.191193,188.065842 296.177643,186.246277 
	C295.793701,183.806610 295.409760,181.366959 294.980957,178.189941 
	C293.006989,174.763718 291.033020,171.337494 288.988525,167.178650 
	C287.012238,165.168533 285.035980,163.158417 282.357452,161.012192 
	C281.263580,160.647690 280.169739,160.283203 279.015900,158.993698 
	C279.343414,151.960953 279.841644,144.929840 279.909088,137.894608 
	C279.933838,135.311707 278.939362,132.719025 279.033417,129.503937 
	C278.860199,123.304962 278.686981,117.105995 279.430328,110.871414 
	C279.621857,109.267395 280.013123,107.658203 279.971771,106.060196 
	C279.739105,97.067963 279.402374,88.078407 279.932007,78.995270 
	C281.415344,75.792778 282.379822,72.655273 278.980103,69.201103 
	C278.356659,61.506779 277.733215,53.812450 277.751862,45.751957 
	C277.164825,43.998596 276.997589,41.915035 275.921204,40.546566 
	C269.864502,32.846355 261.119141,30.551842 251.081604,29.021275 
	C247.039597,29.310268 242.997604,29.599264 238.207794,29.997108 
	C235.522705,32.065697 232.837601,34.134289 229.342712,36.196285 
	C220.229187,37.511620 211.115646,38.826954 201.120605,39.996769 
	C198.741455,40.050709 196.362289,40.104649 193.074356,40.041988 
	C188.423920,39.685471 183.773468,39.328949 178.801270,38.251087 
	C177.793655,37.830582 176.822220,37.231953 175.772507,37.018841 
	C169.536972,35.752914 163.056702,35.254887 157.901474,30.433678 
	C157.594147,30.227169 157.286819,30.020658 156.799454,29.290516 
	C156.629288,29.219046 156.459122,29.147573 155.975479,28.480461 
	C148.964676,23.348923 145.441544,24.652168 143.258087,32.690746 
	C141.822784,33.354786 140.387466,34.018826 138.560669,34.863983 
	C138.317139,34.706818 137.420044,34.127899 136.185898,33.331467 
	C134.661453,35.996326 133.308884,38.360741 131.145691,40.928371 
	C129.755234,40.989029 128.364792,41.049690 126.473671,40.995464 
	C126.309532,41.044193 126.145386,41.092922 125.350777,41.015728 
M130.540955,29.999971 
	C133.062408,29.733692 135.583847,29.467415 138.105301,29.201136 
	C137.403442,27.170517 136.754410,26.204042 135.954391,26.056515 
	C129.937439,24.946970 123.903503,23.238974 117.851067,23.137430 
	C96.701736,22.782598 75.542061,22.902433 54.388039,23.065464 
	C48.775875,23.108715 43.169884,23.953053 37.007198,24.476625 
	C40.589886,25.043081 43.602730,25.825220 46.641827,25.945818 
	C58.382736,26.411728 70.132874,26.639475 81.877914,27.008623 
	C91.126732,27.299313 100.382454,27.509014 109.617439,28.054066 
	C116.299622,28.448450 122.952835,29.333511 130.540955,29.999971 
M35.295731,55.999996 
	C41.369854,56.333328 47.441628,56.720184 53.518665,56.987228 
	C62.252060,57.371002 70.992332,57.604195 79.723778,58.024151 
	C85.292572,58.291992 90.848900,58.809822 96.414108,59.163811 
	C102.873352,59.574669 109.336205,59.928871 117.032776,60.380081 
	C113.512207,54.873528 109.132164,54.206573 104.913864,54.074944 
	C88.365639,53.558567 71.808990,53.122375 55.254189,53.071548 
	C43.525463,53.035542 31.794739,53.668682 20.064718,53.996410 
	C19.067398,54.024277 18.049778,53.883713 17.076645,54.039860 
	C16.319838,54.161297 15.617649,54.623119 14.891186,54.933662 
	C14.951378,55.289104 15.011570,55.644550 15.071763,55.999992 
	C21.491793,55.999992 27.911821,55.999992 35.295731,55.999996 
M71.524170,178.000198 
	C54.240257,180.150879 36.956345,182.301544 19.672430,184.452209 
	C20.393013,184.999741 21.053509,184.983368 21.713009,185.002106 
	C42.176128,185.583374 62.560165,184.456818 82.863724,181.956512 
	C88.785362,181.227280 94.692307,180.200928 100.505341,178.870880 
	C102.359795,178.446564 103.889488,176.602829 105.567780,175.408569 
	C105.247475,174.648468 104.927162,173.888351 104.606857,173.128250 
	C93.877113,174.752136 83.147369,176.376007 71.524170,178.000198 
M81.500000,38.000008 
	C67.346886,38.000008 53.193771,38.000008 39.040657,38.000008 
	C39.060673,38.454948 39.080688,38.909889 39.100704,39.364826 
	C65.331223,40.615570 91.561737,41.866310 117.792252,43.117050 
	C117.964386,42.406639 118.136528,41.696228 118.308662,40.985817 
	C115.034637,39.990555 111.793633,38.292473 108.480156,38.136761 
	C99.837051,37.730591 91.162193,38.000019 81.500000,38.000008 
z"/>
<path fill="#444F67" opacity="1.000000" stroke="none" 
	d="
M152.094421,213.071182 
	C151.904388,213.358490 151.714355,213.645798 150.920319,214.145233 
	C146.776871,214.972702 142.870544,214.836731 139.769913,216.350784 
	C131.923615,220.182190 126.719948,215.037567 122.549751,210.711914 
	C112.294548,200.074432 114.201408,185.486206 112.755951,172.310104 
	C112.253624,167.731094 116.072617,162.654282 118.004326,157.839478 
	C119.561981,153.957001 122.338013,152.524963 126.654610,152.803497 
	C129.144180,152.964157 131.737244,151.521088 134.283737,150.799835 
	C134.139618,150.254456 133.995499,149.709076 133.851379,149.163696 
	C132.357666,149.050079 130.863953,148.936447 128.877792,148.785370 
	C129.647369,147.587280 130.079819,146.914047 130.835419,146.133194 
	C134.434677,145.048233 137.710800,144.070892 141.362442,143.132828 
	C143.656860,143.837555 145.575760,144.503006 147.392853,145.516418 
	C148.764145,149.891693 150.237213,153.919022 152.006012,158.754791 
	C147.152893,156.428162 143.469910,154.662506 139.786942,152.896835 
	C139.500732,153.445038 139.214523,153.993240 138.928314,154.541428 
	C140.976395,155.713440 143.171356,156.692917 145.031006,158.111877 
	C146.870972,159.515808 148.372467,161.363297 149.606201,163.003540 
	C145.368378,162.467102 144.955338,165.243866 146.275330,167.241104 
	C148.640625,170.819977 151.887421,173.816269 154.765793,177.056061 
	C155.261749,176.817245 155.757706,176.578430 156.253662,176.339615 
	C155.671387,174.146210 155.188766,171.919968 154.479691,169.768341 
	C153.724640,167.477280 152.755234,165.256851 152.001953,162.658875 
	C154.790497,160.560944 156.744217,158.427155 156.404266,155.067932 
	C159.204620,160.152939 161.705704,165.070786 163.946838,170.278549 
	C163.109756,171.898315 162.489029,173.211212 161.964050,174.561340 
	C160.617233,178.024918 159.312943,181.505035 157.631897,184.975800 
	C155.353317,182.503998 153.434494,180.034973 150.920776,176.800476 
	C149.356766,183.770111 150.953232,187.365494 155.939392,190.039459 
	C156.653702,188.844391 157.379684,187.629807 158.465454,186.338181 
	C161.159424,183.901077 163.493591,181.541046 165.874695,179.598724 
	C165.972015,181.979584 166.022446,183.942749 165.756287,186.064789 
	C162.642471,190.955582 159.845215,195.687500 157.047974,200.419403 
	C157.446625,200.783157 157.845276,201.146896 158.243927,201.510635 
	C160.148254,200.002625 162.052567,198.494614 163.974640,197.278534 
	C164.037079,197.760239 164.081772,197.950027 164.091934,198.442520 
	C164.036163,199.150879 164.014908,199.556549 163.898468,200.286346 
	C158.952042,206.041351 153.375580,210.281296 145.304031,210.423981 
	C145.464340,211.073441 145.624649,211.722900 145.784943,212.372360 
	C147.888107,212.605301 149.991257,212.838242 152.094421,213.071182 
M128.570511,199.067947 
	C130.743896,197.576675 133.660461,196.558014 134.961548,194.512024 
	C140.490005,185.818283 136.904465,176.159073 132.236755,169.026123 
	C132.114487,168.839294 131.249619,169.138412 130.279663,168.899887 
	C129.715210,168.273102 129.150757,167.646317 127.828331,167.144165 
	C121.681137,170.310745 115.978592,181.304810 117.996643,187.674179 
	C118.971146,190.749893 121.867119,193.216812 123.649887,196.659729 
	C125.027443,197.428238 126.405006,198.196762 128.570511,199.067947 
M149.966064,193.581680 
	C149.207245,193.108643 148.448425,192.635620 147.689590,192.162582 
	C147.300262,192.407806 146.910950,192.653030 146.521622,192.898254 
	C148.280411,197.101944 150.039215,201.305634 151.798019,205.509323 
	C152.357681,205.286041 152.917343,205.062759 153.477005,204.839478 
	C155.235947,200.578094 152.091278,197.559326 149.966064,193.581680 
M141.776398,204.205109 
	C139.633759,207.051163 139.439545,209.930695 141.455627,213.609650 
	C144.306839,210.185837 145.456940,207.355743 141.776398,204.205109 
M138.329376,146.206406 
	C137.480515,146.807465 136.631668,147.408539 135.782806,148.009613 
	C136.005371,148.383621 136.227936,148.757629 136.450500,149.131638 
	C138.032898,148.689865 139.615280,148.248108 142.127777,147.546677 
	C140.465103,146.834763 139.740036,146.524307 138.329376,146.206406 
z"/>
<path fill="#A3612F" opacity="1.000000" stroke="none" 
	d="
M278.513794,110.907021 
	C278.686981,117.105995 278.860199,123.304962 278.578308,130.354156 
	C277.745880,142.463593 277.368500,153.722809 276.694977,165.156433 
	C274.582031,166.208237 272.765259,167.085648 270.550354,168.003525 
	C267.454590,168.444138 264.756958,168.844315 262.041687,168.761536 
	C262.349365,157.680145 262.639160,147.080414 263.026550,136.484238 
	C263.116547,134.022476 263.754395,131.574295 263.770782,129.117416 
	C263.840546,118.654037 263.961792,108.184830 263.691956,97.727356 
	C263.483673,89.654427 262.721344,81.595779 262.628845,73.592804 
	C268.489197,74.163963 274.103485,74.166710 278.037567,79.387413 
	C278.183502,90.211517 278.348633,100.559265 278.513794,110.907021 
z"/>
<path fill="#000000" opacity="1.000000" stroke="none" 
	d="
M130.512268,146.240814 
	C130.079819,146.914047 129.647369,147.587280 128.877792,148.785370 
	C130.863953,148.936447 132.357666,149.050079 133.851379,149.163696 
	C133.995499,149.709076 134.139618,150.254456 134.283737,150.799835 
	C131.737244,151.521088 129.144180,152.964157 126.654610,152.803497 
	C122.338013,152.524963 119.561981,153.957001 118.004326,157.839478 
	C116.072617,162.654282 112.253624,167.731094 112.755951,172.310104 
	C114.201408,185.486206 112.294548,200.074432 122.549751,210.711914 
	C126.719948,215.037567 131.923615,220.182190 139.769913,216.350784 
	C142.870544,214.836731 146.776871,214.972702 150.657883,214.187317 
	C151.283035,218.143661 148.372757,219.456635 145.212982,219.919678 
	C140.845795,220.559631 136.404800,220.753540 131.987289,220.978928 
	C125.356758,221.317230 116.869606,214.769257 115.037201,207.959167 
	C114.579987,206.259949 114.357224,204.497650 114.312248,202.193008 
	C114.362579,201.093445 114.127350,200.565201 113.892120,200.036972 
	C111.798546,197.395432 109.704964,194.753891 107.302582,192.050140 
	C106.993782,191.987915 107.067047,192.057236 107.067047,192.057236 
	C107.388924,189.321564 107.778748,186.591782 108.017136,183.848862 
	C108.398254,179.463638 108.352638,175.015167 109.075554,170.691757 
	C110.268822,163.555450 111.418365,156.271332 118.625305,151.194656 
	C91.235329,153.897446 64.920967,153.700104 38.626431,151.254288 
	C38.621178,150.836197 38.615925,150.418091 38.610672,150.000000 
	C43.244392,150.000000 47.878109,150.000000 52.511826,150.000000 
	C57.172642,150.000000 61.848785,149.754730 66.491463,150.044922 
	C81.844658,151.004608 96.692940,148.355988 111.390564,144.284286 
	C117.348099,142.633881 120.468246,144.845139 119.498726,150.916122 
	C122.597298,149.013229 125.125694,147.460495 128.491348,145.907700 
	C129.723145,146.018707 130.117706,146.129761 130.512268,146.240814 
z"/>
<path fill="#444E65" opacity="1.000000" stroke="none" 
	d="
M295.802032,186.924988 
	C296.191193,188.065842 296.580353,189.206665 296.589478,190.830353 
	C293.973358,194.692413 291.737335,198.071609 289.271332,201.798294 
	C291.073730,201.887695 292.046936,201.935959 292.934540,202.319885 
	C289.161591,205.132492 285.474243,207.609451 281.443970,210.316757 
	C283.040253,210.579315 284.575623,210.831863 286.111023,211.084412 
	C285.932465,211.365143 285.753937,211.645889 284.914978,212.008118 
	C276.456390,214.387283 269.016724,214.917786 263.308533,207.566254 
	C264.686218,206.613541 265.883331,205.898224 267.447998,205.128723 
	C269.648407,204.315155 271.611023,203.768570 273.284973,202.748413 
	C276.059326,201.057648 277.306183,198.768082 274.875122,195.355652 
	C275.605591,187.983093 276.312927,181.033661 277.154907,173.779083 
	C277.876892,172.533493 278.464203,171.593018 279.444458,170.738373 
	C280.899750,170.888000 281.962067,170.951782 283.013000,171.007751 
	C283.001617,170.999939 282.980682,170.982040 282.935577,171.292191 
	C283.286316,172.064575 283.682159,172.526825 283.916382,173.299042 
	C282.929626,174.840027 281.130646,176.744339 281.439606,177.191193 
	C283.249878,179.809479 285.552948,182.087082 287.689758,184.479614 
	C288.097809,184.155334 288.505859,183.831039 288.913879,183.506760 
	C287.906067,180.327789 286.898254,177.148819 286.114258,173.695068 
	C287.245087,171.583954 288.152069,169.747604 289.059052,167.911270 
	C291.033020,171.337494 293.006989,174.763718 294.839600,178.891571 
	C293.103790,183.381317 291.509338,187.169434 289.638245,190.762100 
	C288.104462,188.889511 286.847321,187.212387 285.590179,185.535263 
	C284.974396,185.949524 284.358643,186.363785 283.742889,186.778061 
	C284.887665,189.200577 286.032471,191.623093 287.375671,194.465439 
	C289.060089,192.945404 290.102081,192.005096 291.471832,191.032806 
	C293.133759,189.642197 294.467896,188.283600 295.802032,186.924988 
z"/>
<path fill="#3E1602" opacity="1.000000" stroke="none" 
	d="
M125.875526,64.982132 
	C124.665466,61.581711 123.455399,58.181286 122.244804,54.132484 
	C122.837173,52.070400 123.430069,50.656704 124.359192,49.049229 
	C128.533966,48.426605 132.362900,47.837944 136.213333,47.606091 
	C142.098450,47.251717 147.998398,47.143646 154.158661,46.822960 
	C154.625793,46.195004 154.826340,45.675106 155.392181,45.095879 
	C156.873398,45.653740 157.989334,46.270939 159.071503,47.219940 
	C158.649475,48.345589 158.261230,49.139442 157.489410,49.951477 
	C152.673294,51.368927 148.173584,52.589142 143.827408,54.218796 
	C139.642105,55.788139 135.998138,58.380756 135.209915,63.108891 
	C134.505341,67.335182 134.517899,71.681030 134.157623,76.359192 
	C133.731735,78.493721 133.362274,80.243179 132.649902,82.036377 
	C131.811111,82.512634 131.315247,82.945145 130.510941,83.159019 
	C129.382492,81.206047 128.208878,79.547829 127.815681,77.721588 
	C126.984184,73.859589 126.560349,69.909821 126.022018,65.735519 
	C126.008339,65.310715 125.941933,65.146423 125.875526,64.982132 
z"/>
<path fill="#F7E7D4" opacity="1.000000" stroke="none" 
	d="
M125.969299,65.996048 
	C126.560349,69.909821 126.984184,73.859589 127.815681,77.721588 
	C128.208878,79.547829 129.382492,81.206047 130.394073,83.585464 
	C130.766129,88.155182 130.946594,92.079803 131.059723,96.468582 
	C130.928482,105.839142 130.864578,114.745552 130.627228,123.756775 
	C130.453781,123.861572 130.089798,124.039772 130.089798,124.039772 
	C127.063438,115.958450 124.037071,107.877129 120.903603,99.187027 
	C120.608177,98.303795 120.355515,98.115822 120.038506,98.014343 
	C120.038506,98.014343 120.011818,97.524490 119.905441,97.056786 
	C119.611801,96.309219 119.357964,96.117546 119.037552,96.014046 
	C119.025162,95.573875 119.012779,95.133713 118.899719,94.141098 
	C118.611885,93.309227 118.358299,93.117836 118.038269,93.014496 
	C118.024902,92.574181 118.011536,92.133858 118.031204,91.048874 
	C118.703224,89.616028 119.342224,88.827850 119.981216,88.039673 
	C120.727982,88.025093 121.474731,88.010513 122.940994,87.992523 
	C127.642113,87.030670 124.812057,85.426826 124.036774,84.017670 
	C124.036774,84.017670 124.008347,83.527130 124.001312,82.941956 
	C123.674500,81.577049 123.354729,80.797333 123.034958,80.017609 
	C123.034958,80.017609 123.006767,79.528511 123.000336,78.943558 
	C122.673645,77.577988 122.353401,76.797356 122.033157,76.016731 
	C122.033157,76.016731 122.005310,75.529228 121.999474,74.944679 
	C121.673050,73.578781 121.352463,72.797424 121.031876,72.016068 
	C121.031883,72.016068 121.004356,71.529541 121.000381,70.892822 
	C121.670395,68.495117 122.344383,66.734138 123.018372,64.973160 
	C123.462112,64.986404 123.905869,64.999649 124.785049,65.236420 
	C125.412094,65.719627 125.661705,65.898331 125.969299,65.996048 
z"/>
<path fill="#000000" opacity="1.000000" stroke="none" 
	d="
M106.959122,191.951294 
	C108.039757,198.634903 102.042618,199.310028 98.359283,200.590195 
	C92.639702,202.578125 86.389343,203.566010 80.306763,203.884323 
	C61.519707,204.867432 42.709312,205.528595 23.899832,205.887634 
	C17.814577,206.003815 11.704129,204.800156 5.605206,204.200241 
	C5.634991,203.680099 5.664776,203.159943 5.694561,202.639801 
	C13.688261,203.067337 21.678043,203.682953 29.677177,203.849625 
	C34.239819,203.944672 38.818661,203.033188 43.388577,203.048920 
	C60.426991,203.107590 77.013199,201.208099 92.849472,194.199615 
	C96.832649,192.436813 101.704453,192.681946 106.617462,192.030762 
	C107.067047,192.057236 106.993782,191.987915 106.959122,191.951294 
z"/>
<path fill="#000000" opacity="1.000000" stroke="none" 
	d="
M130.079956,29.999863 
	C122.952835,29.333511 116.299622,28.448450 109.617439,28.054066 
	C100.382454,27.509014 91.126732,27.299313 81.877914,27.008623 
	C70.132874,26.639475 58.382736,26.411728 46.641827,25.945818 
	C43.602730,25.825220 40.589886,25.043081 37.007198,24.476625 
	C43.169884,23.953053 48.775875,23.108715 54.388039,23.065464 
	C75.542061,22.902433 96.701736,22.782598 117.851067,23.137430 
	C123.903503,23.238974 129.937439,24.946970 135.954391,26.056515 
	C136.754410,26.204042 137.403442,27.170517 138.105301,29.201136 
	C135.583847,29.467415 133.062408,29.733692 130.079956,29.999863 
z"/>
<path fill="#000000" opacity="1.000000" stroke="none" 
	d="
M34.813789,55.999992 
	C27.911821,55.999992 21.491793,55.999992 15.071763,55.999992 
	C15.011570,55.644550 14.951378,55.289104 14.891186,54.933662 
	C15.617649,54.623119 16.319838,54.161297 17.076645,54.039860 
	C18.049778,53.883713 19.067398,54.024277 20.064718,53.996410 
	C31.794739,53.668682 43.525463,53.035542 55.254189,53.071548 
	C71.808990,53.122375 88.365639,53.558567 104.913864,54.074944 
	C109.132164,54.206573 113.512207,54.873528 117.032776,60.380081 
	C109.336205,59.928871 102.873352,59.574669 96.414108,59.163811 
	C90.848900,58.809822 85.292572,58.291992 79.723778,58.024151 
	C70.992332,57.604195 62.252060,57.371002 53.518665,56.987228 
	C47.441628,56.720184 41.369854,56.333328 34.813789,55.999992 
z"/>
<path fill="#000000" opacity="1.000000" stroke="none" 
	d="
M71.970901,178.000031 
	C83.147369,176.376007 93.877113,174.752136 104.606857,173.128250 
	C104.927162,173.888351 105.247475,174.648468 105.567780,175.408569 
	C103.889488,176.602829 102.359795,178.446564 100.505341,178.870880 
	C94.692307,180.200928 88.785362,181.227280 82.863724,181.956512 
	C62.560165,184.456818 42.176128,185.583374 21.713009,185.002106 
	C21.053509,184.983368 20.393013,184.999741 19.672430,184.452209 
	C36.956345,182.301544 54.240257,180.150879 71.970901,178.000031 
z"/>
<path fill="#050405" opacity="1.000000" stroke="none" 
	d="
M240.790833,225.002823 
	C240.506882,225.737152 240.297180,227.070526 239.927887,227.116287 
	C234.077988,227.841385 227.852097,229.827911 222.469589,228.486633 
	C219.006241,227.623581 216.616470,221.922470 214.058945,218.175873 
	C212.760880,216.274307 212.547668,213.594254 211.152756,211.805054 
	C208.641800,208.584290 208.318253,205.422562 210.179947,201.322235 
	C210.312576,200.175797 210.239914,199.572922 210.119751,198.573792 
	C210.026794,197.113892 209.981308,196.050247 210.115112,194.647583 
	C211.241821,190.638718 212.189255,186.968903 213.418640,183.087769 
	C217.477264,180.245621 221.253937,177.614807 225.146194,175.334885 
	C226.112061,176.000168 227.010117,176.663467 227.802475,176.554932 
	C229.363022,176.341202 230.864914,175.699142 232.391068,175.234238 
	C232.543304,175.763580 232.695557,176.292923 232.847794,176.822266 
	C229.525726,177.893829 226.126175,178.777191 222.908249,180.101761 
	C220.686035,181.016464 217.875473,182.037720 216.772232,183.877502 
	C211.042435,193.432419 213.168961,203.528915 215.757828,213.466080 
	C217.129822,218.732422 219.787170,222.980118 225.129776,225.581970 
	C230.429184,228.162796 235.047348,225.206863 240.178375,224.996429 
	C240.382492,225.000793 240.790848,225.002823 240.790833,225.002823 
z"/>
<path fill="#F9E9D7" opacity="1.000000" stroke="none" 
	d="
M159.105286,46.888138 
	C157.989334,46.270939 156.873398,45.653740 155.002319,44.946037 
	C147.171432,43.608635 140.095657,42.361732 132.769699,40.974533 
	C132.331772,40.797874 132.144028,40.761513 131.956299,40.725151 
	C133.308884,38.360741 134.661453,35.996326 136.185898,33.331467 
	C137.420044,34.127899 138.317139,34.706818 138.560669,34.863983 
	C140.387466,34.018826 141.822784,33.354786 143.621048,33.065140 
	C143.984009,33.439529 144.039841,33.927349 144.046707,34.281372 
	C150.999802,41.373055 160.210251,42.044559 169.424011,43.962189 
	C174.587097,44.657436 179.292206,45.324631 183.571991,46.067352 
	C175.132858,46.391296 167.119080,46.639713 159.105286,46.888138 
z"/>
<path fill="#000000" opacity="1.000000" stroke="none" 
	d="
M82.000000,38.000008 
	C91.162193,38.000019 99.837051,37.730591 108.480156,38.136761 
	C111.793633,38.292473 115.034637,39.990555 118.308662,40.985817 
	C118.136528,41.696228 117.964386,42.406639 117.792252,43.117050 
	C91.561737,41.866310 65.331223,40.615570 39.100704,39.364826 
	C39.080688,38.909889 39.060673,38.454948 39.040657,38.000008 
	C53.193771,38.000008 67.346886,38.000008 82.000000,38.000008 
z"/>
<path fill="#461D01" opacity="1.000000" stroke="none" 
	d="
M278.056763,78.911064 
	C274.103485,74.166710 268.489197,74.163963 262.590576,73.428589 
	C262.128845,73.202354 262.024170,72.873520 261.945923,72.529968 
	C258.910309,70.471138 255.952896,68.755844 253.426651,66.993889 
	C255.587250,66.803154 257.316711,66.659081 259.492737,66.615463 
	C265.621918,67.495323 271.304535,68.274742 277.139465,69.284081 
	C277.799866,69.704323 278.307922,69.894638 278.815979,70.084946 
	C282.379822,72.655273 281.415344,75.792778 279.257843,78.984108 
	C278.408051,78.952324 278.232391,78.931694 278.056763,78.911064 
z"/>
<path fill="#4A2101" opacity="1.000000" stroke="none" 
	d="
M251.991821,29.166048 
	C261.119141,30.551842 269.864502,32.846355 275.921204,40.546566 
	C276.997589,41.915035 277.164825,43.998596 277.076050,45.924294 
	C275.926422,46.096573 275.452606,46.096519 274.679230,45.926346 
	C268.243774,42.767288 262.107880,39.778351 255.973251,36.439804 
	C254.646957,33.782146 253.319382,31.474098 251.991821,29.166048 
z"/>
<path fill="#3B1401" opacity="1.000000" stroke="none" 
	d="
M156.288940,29.076103 
	C156.459122,29.147573 156.629288,29.219046 156.962891,29.793167 
	C157.360458,30.528929 157.594589,30.762037 157.828735,30.995144 
	C163.056702,35.254887 169.536972,35.752914 175.772507,37.018841 
	C176.822220,37.231953 177.793655,37.830582 178.677643,38.744900 
	C178.003815,40.074104 177.453583,40.909496 176.517334,41.753525 
	C173.774353,41.439281 171.417404,41.116405 168.769653,40.554291 
	C162.991470,38.436367 157.504105,36.557674 152.076508,34.333412 
	C153.520493,32.350597 154.904724,30.713350 156.288940,29.076103 
z"/>
<path fill="#030304" opacity="1.000000" stroke="none" 
	d="
M168.423187,202.969864 
	C168.434631,202.737854 168.446060,202.505859 168.764740,201.795990 
	C170.055695,200.547119 171.039383,199.776123 172.329468,199.170486 
	C180.929382,206.067032 189.500748,202.417557 198.038696,200.015686 
	C196.712311,201.820053 195.544388,205.017532 194.032303,205.189529 
	C187.201370,205.966522 180.271576,206.049591 173.380936,205.987869 
	C171.901474,205.974625 170.436676,204.322464 168.664215,203.219467 
	C168.363312,203.013641 168.423187,202.969864 168.423187,202.969864 
z"/>
<path fill="#6D4E3B" opacity="1.000000" stroke="none" 
	d="
M131.550995,40.826759 
	C132.144028,40.761513 132.331772,40.797874 132.830048,41.325409 
	C135.603638,42.887131 137.976013,44.368279 140.549942,44.936569 
	C144.930557,45.903755 149.437943,46.296757 153.892059,46.931015 
	C147.998398,47.143646 142.098450,47.251717 136.213333,47.606091 
	C132.362900,47.837944 128.533966,48.426605 124.033020,48.938503 
	C123.549179,46.625271 123.727730,44.228985 123.906273,41.832703 
	C123.906273,41.832703 123.942177,41.913845 124.253235,41.982559 
	C125.044006,42.034309 125.523720,42.017349 126.220299,41.919132 
	C126.722374,41.673756 126.901428,41.431248 126.974335,41.110352 
	C128.364792,41.049690 129.755234,40.989029 131.550995,40.826759 
z"/>
<path fill="#444F67" opacity="1.000000" stroke="none" 
	d="
M198.287689,199.967896 
	C189.500748,202.417557 180.929382,206.067032 172.364944,198.853119 
	C172.058929,197.947342 172.023788,197.524307 172.401154,197.057098 
	C175.394257,196.968811 177.997787,196.684326 180.550842,196.928299 
	C186.737976,197.519562 192.901596,198.356903 199.074692,199.095062 
	C198.895355,199.370087 198.716003,199.645111 198.287689,199.967896 
z"/>
<path fill="#581A0D" opacity="1.000000" stroke="none" 
	d="
M199.456207,199.203262 
	C192.901596,198.356903 186.737976,197.519562 180.550842,196.928299 
	C177.997787,196.684326 175.394257,196.968811 172.000900,197.015869 
	C169.135422,196.644943 167.082703,196.271088 165.053772,195.592346 
	C165.375076,194.528900 165.672592,193.770355 166.361115,193.055679 
	C168.837616,193.387314 170.923096,193.675095 173.431183,193.974106 
	C176.907135,194.309753 179.960495,194.634186 183.465668,194.972717 
	C186.923431,195.005371 189.929413,195.023911 193.031403,195.418152 
	C198.807358,196.852600 204.487289,197.911331 210.167236,198.970047 
	C210.239914,199.572922 210.312576,200.175797 210.153076,200.918259 
	C206.559845,200.475723 203.198776,199.893585 199.456207,199.203262 
z"/>
<path fill="#3B1401" opacity="1.000000" stroke="none" 
	d="
M251.536713,29.093662 
	C253.319382,31.474098 254.646957,33.782146 255.580536,36.464211 
	C254.138000,36.781425 253.089432,36.724625 251.709045,36.458229 
	C248.592850,36.205368 245.808472,36.162094 242.989502,35.770958 
	C241.621811,33.578152 240.288696,31.733206 238.955597,29.888260 
	C242.997604,29.599264 247.039597,29.310268 251.536713,29.093662 
z"/>
<path fill="#2F0702" opacity="1.000000" stroke="none" 
	d="
M238.581696,29.942684 
	C240.288696,31.733206 241.621811,33.578152 242.689178,35.928703 
	C240.603897,37.268978 238.784363,38.103649 236.656921,38.983006 
	C235.521103,39.618420 234.693192,40.209152 233.478287,40.869347 
	C232.001953,39.970284 230.912598,39.001762 229.894272,37.731216 
	C230.027695,37.020424 230.090103,36.611649 230.152512,36.202877 
	C232.837601,34.134289 235.522705,32.065697 238.581696,29.942684 
z"/>
<path fill="#3B1401" opacity="1.000000" stroke="none" 
	d="
M267.080475,205.182907 
	C265.883331,205.898224 264.686218,206.613541 262.943726,207.615051 
	C261.572815,208.302292 260.747284,208.703308 259.921753,209.104324 
	C257.210388,209.658035 254.499039,210.211746 251.418045,210.523071 
	C251.325012,208.258255 251.601624,206.235809 251.893677,204.128723 
	C251.909103,204.044067 251.945816,203.875916 252.277573,203.930969 
	C253.446671,203.789841 254.284027,203.593674 255.512665,203.358429 
	C257.619293,202.961914 259.334595,202.604492 261.455139,202.206329 
	C263.205994,202.000916 264.551605,201.836273 266.028381,202.023438 
	C266.466492,203.311127 266.773468,204.247009 267.080475,205.182907 
z"/>
<path fill="#030304" opacity="1.000000" stroke="none" 
	d="
M260.053284,209.420685 
	C260.747284,208.703308 261.572815,208.302292 262.763153,207.852448 
	C269.016724,214.917786 276.456390,214.387283 284.662781,212.054123 
	C285.040466,212.348404 285.127197,212.760376 284.962158,212.995834 
	C281.562622,217.845108 267.266876,217.931656 263.683960,213.214478 
	C262.698914,211.917603 261.360870,210.888855 260.053284,209.420685 
z"/>
<path fill="#030304" opacity="1.000000" stroke="none" 
	d="
M152.471954,213.031464 
	C149.991257,212.838242 147.888107,212.605301 145.784943,212.372360 
	C145.624649,211.722900 145.464340,211.073441 145.304031,210.423981 
	C153.375580,210.281296 158.952042,206.041351 164.140839,200.336517 
	C164.478409,200.062531 164.914673,200.295868 164.874573,200.592667 
	C164.921829,201.277267 165.009171,201.665070 165.096512,202.052872 
	C164.264038,209.337677 158.436447,211.029999 152.471954,213.031464 
z"/>
<path fill="#581A0D" opacity="1.000000" stroke="none" 
	d="
M130.150055,124.480972 
	C130.089798,124.039772 130.453781,123.861572 130.818024,124.073982 
	C132.111938,124.528191 133.041580,124.769989 133.976395,125.422325 
	C133.670883,128.219162 133.360214,130.605469 133.034821,133.434799 
	C133.397186,136.646545 133.774231,139.415237 133.917480,142.419052 
	C132.087387,143.408234 130.491104,144.162323 128.894806,144.916397 
	C129.333298,138.251648 129.771805,131.586914 130.150055,124.480972 
z"/>
<path fill="#461D01" opacity="1.000000" stroke="none" 
	d="
M156.132202,28.778282 
	C154.904724,30.713350 153.520493,32.350597 151.759689,34.251980 
	C149.731705,33.259933 148.080307,32.003754 146.431763,30.749741 
	C145.508408,31.976395 144.774124,32.951870 144.039841,33.927349 
	C144.039841,33.927349 143.984009,33.439529 143.907898,33.206036 
	C145.441544,24.652168 148.964676,23.348923 156.132202,28.778282 
z"/>
<path fill="#975529" opacity="1.000000" stroke="none" 
	d="
M229.747620,36.199581 
	C230.090103,36.611649 230.027695,37.020424 229.571198,37.889206 
	C226.114410,39.240074 223.051758,40.130939 219.602295,41.016773 
	C217.808487,41.348072 216.401489,41.684406 214.663055,42.025909 
	C213.891602,42.070297 213.451599,42.109509 212.681305,42.122314 
	C211.910477,42.062881 211.469925,42.029854 210.576630,42.005844 
	C207.416428,41.994064 204.708984,41.973267 201.999512,41.650776 
	C201.999023,40.946815 202.000565,40.544552 202.002121,40.142288 
	C211.115646,38.826954 220.229187,37.511620 229.747620,36.199581 
z"/>
<path fill="#8C4C25" opacity="1.000000" stroke="none" 
	d="
M278.037567,79.387413 
	C278.232391,78.931694 278.408051,78.952324 278.842407,79.030441 
	C279.402374,88.078407 279.739105,97.067963 279.971771,106.060196 
	C280.013123,107.658203 279.621857,109.267395 278.972046,110.889221 
	C278.348633,100.559265 278.183502,90.211517 278.037567,79.387413 
z"/>
<path fill="#060708" opacity="1.000000" stroke="none" 
	d="
M289.023804,167.544952 
	C288.152069,169.747604 287.245087,171.583954 285.878784,173.591019 
	C284.972260,173.504181 284.525146,173.246613 284.078003,172.989059 
	C283.682159,172.526825 283.286316,172.064575 283.316589,171.242584 
	C283.893066,169.359085 284.256866,167.818436 284.137878,166.316025 
	C284.000031,164.575912 283.437744,162.869400 283.059723,161.148300 
	C285.035980,163.158417 287.012238,165.168533 289.023804,167.544952 
z"/>
<path fill="#834424" opacity="1.000000" stroke="none" 
	d="
M276.991150,164.982025 
	C277.368500,153.722809 277.745880,142.463593 278.266541,130.667603 
	C278.939362,132.719025 279.933838,135.311707 279.909088,137.894608 
	C279.841644,144.929840 279.343414,151.960953 278.763397,159.705292 
	C278.354218,161.918488 278.197540,163.420105 277.778900,164.947296 
	C277.341705,164.975906 277.166412,164.978958 276.991150,164.982025 
z"/>
<path fill="#08090A" opacity="1.000000" stroke="none" 
	d="
M286.476196,211.047882 
	C284.575623,210.831863 283.040253,210.579315 281.443970,210.316757 
	C285.474243,207.609451 289.161591,205.132492 292.924713,202.327774 
	C293.000458,202.000015 292.982483,202.017639 293.296936,202.052322 
	C294.031982,202.072815 294.452576,202.058640 294.873169,202.044449 
	C295.807770,208.268646 290.534363,208.932190 286.476196,211.047882 
z"/>
<path fill="#060708" opacity="1.000000" stroke="none" 
	d="
M240.937927,224.657227 
	C240.790848,225.002823 240.382492,225.000793 240.045441,224.674011 
	C238.809814,223.644882 237.911224,222.942535 237.968033,222.986923 
	C242.151215,219.860519 246.056656,216.941681 249.974014,214.036072 
	C249.985916,214.049286 249.961304,214.078369 249.961304,214.078369 
	C251.990585,217.425507 249.690338,219.439484 247.454071,221.084869 
	C245.563293,222.476074 243.225174,223.259338 240.937927,224.657227 
z"/>
<path fill="#843917" opacity="1.000000" stroke="none" 
	d="
M176.903366,41.744888 
	C177.453583,40.909496 178.003815,40.074104 178.838531,39.105568 
	C183.773468,39.328949 188.423920,39.685471 193.535919,40.391071 
	C193.988800,41.321476 193.980133,41.902802 193.528687,42.567986 
	C187.691727,42.349525 182.297546,42.047207 176.903366,41.744888 
z"/>
<path fill="#444E65" opacity="1.000000" stroke="none" 
	d="
M278.040833,164.921722 
	C278.197540,163.420105 278.354218,161.918488 278.793396,160.167786 
	C280.169739,160.283203 281.263580,160.647690 282.708588,161.080246 
	C283.437744,162.869400 284.000031,164.575912 284.137878,166.316025 
	C284.256866,167.818436 283.893066,169.359085 283.361694,170.932434 
	C282.980682,170.982040 283.001617,170.999939 282.926453,170.693085 
	C281.930908,169.862152 281.010529,169.338089 280.048523,168.482666 
	C279.351501,167.074768 278.696167,165.998245 278.040833,164.921722 
z"/>
<path fill="#95542A" opacity="1.000000" stroke="none" 
	d="
M274.978790,46.096466 
	C275.452606,46.096519 275.926422,46.096573 276.755005,46.107376 
	C277.733215,53.812450 278.356659,61.506779 278.898041,69.643021 
	C278.307922,69.894638 277.799866,69.704323 277.143616,68.821411 
	C276.323242,60.784698 275.651031,53.440582 274.978790,46.096466 
z"/>
<path fill="#050405" opacity="1.000000" stroke="none" 
	d="
M289.914856,190.957550 
	C291.509338,187.169434 293.103790,183.381317 294.862000,179.260239 
	C295.409760,181.366959 295.793701,183.806610 295.989838,186.585632 
	C294.467896,188.283600 293.133759,189.642197 291.164337,191.002411 
	C290.324310,190.988510 290.119598,190.973038 289.914856,190.957550 
z"/>
<path fill="#08090A" opacity="1.000000" stroke="none" 
	d="
M293.010284,201.992126 
	C292.046936,201.935959 291.073730,201.887695 289.271332,201.798294 
	C291.737335,198.071609 293.973358,194.692413 296.524048,191.201813 
	C296.498077,193.629562 296.157501,196.168716 295.159790,198.997421 
	C293.995941,200.197174 293.489197,201.107407 292.982483,202.017639 
	C292.982483,202.017639 293.000458,202.000015 293.010284,201.992126 
z"/>
<path fill="#08090A" opacity="1.000000" stroke="none" 
	d="
M251.878220,204.213379 
	C251.601624,206.235809 251.325012,208.258255 251.059631,210.667465 
	C251.070862,211.054245 250.928162,211.493454 250.627991,211.802826 
	C250.024429,212.326050 249.908401,212.615143 249.979767,212.979477 
	C249.927933,213.161667 249.876114,213.343872 249.892792,213.802231 
	C249.961304,214.078369 249.985916,214.049286 249.622711,213.931274 
	C247.976883,214.086014 246.694260,214.358749 244.095215,214.911423 
	C247.204117,210.638107 249.541153,207.425735 251.878220,204.213379 
z"/>
<path fill="#BEB3AA" opacity="1.000000" stroke="none" 
	d="
M165.533966,201.956833 
	C165.009171,201.665070 164.921829,201.277267 164.920044,200.272766 
	C164.712555,199.150650 164.419510,198.645233 164.126450,198.139816 
	C164.081772,197.950027 164.037079,197.760239 164.128967,197.074524 
	C164.520370,196.351471 164.775192,196.124344 165.029999,195.897232 
	C167.082703,196.271088 169.135422,196.644943 171.588379,197.060028 
	C172.023788,197.524307 172.058929,197.947342 172.058563,198.687744 
	C171.039383,199.776123 170.055695,200.547119 168.852875,201.458908 
	C167.746307,201.686722 166.858856,201.773758 165.533966,201.956833 
z"/>
<path fill="#461D01" opacity="1.000000" stroke="none" 
	d="
M123.589516,42.009125 
	C123.727730,44.228985 123.549179,46.625271 123.696800,49.132278 
	C123.430069,50.656704 122.837173,52.070400 122.097488,53.796360 
	C118.374924,49.688908 119.625679,45.804371 123.589516,42.009125 
z"/>
<path fill="#030304" opacity="1.000000" stroke="none" 
	d="
M128.661377,144.991913 
	C130.491104,144.162323 132.087387,143.408234 134.309265,142.372192 
	C136.952194,142.424652 138.969559,142.759094 140.986908,143.093536 
	C137.710800,144.070892 134.434677,145.048233 130.835419,146.133209 
	C130.117706,146.129761 129.723145,146.018707 128.750702,145.697113 
	C128.172821,145.486572 128.427963,145.067429 128.661377,144.991913 
z"/>
<path fill="#9B5B2C" opacity="1.000000" stroke="none" 
	d="
M193.971466,42.484123 
	C193.980133,41.902802 193.988800,41.321476 193.990295,40.449371 
	C196.362289,40.104649 198.741455,40.050709 201.561371,40.069527 
	C202.000565,40.544552 201.999023,40.946815 201.595001,41.726410 
	C198.785507,42.230530 196.378494,42.357327 193.971466,42.484123 
z"/>
<path fill="#FDE7CF" opacity="1.000000" stroke="none" 
	d="
M122.779083,64.701622 
	C122.344383,66.734138 121.670395,68.495117 120.991302,70.649338 
	C120.495857,69.708954 119.966789,68.388077 119.522942,67.039162 
	C118.458252,63.803486 120.182312,63.737995 122.779083,64.701622 
z"/>
<path fill="#FDE7CF" opacity="1.000000" stroke="none" 
	d="
M124.021332,84.366524 
	C124.812057,85.426826 127.642113,87.030670 123.314461,87.989807 
	C123.314247,86.898788 123.660072,85.807083 124.021332,84.366524 
z"/>
<path fill="#444E65" opacity="1.000000" stroke="none" 
	d="
M293.296936,202.052322 
	C293.489197,201.107407 293.995941,200.197174 294.820618,199.195419 
	C295.092834,199.841202 295.047119,200.578537 294.937286,201.680145 
	C294.452576,202.058640 294.031982,202.072815 293.296936,202.052322 
z"/>
<path fill="#FDE7CF" opacity="1.000000" stroke="none" 
	d="
M119.627495,88.031357 
	C119.342224,88.827850 118.703224,89.616028 118.026665,90.718491 
	C118.417328,90.029541 118.845551,89.026291 119.627495,88.031357 
z"/>
<path fill="#FDE7CF" opacity="1.000000" stroke="none" 
	d="
M121.021622,72.354645 
	C121.352463,72.797424 121.673050,73.578781 121.990150,74.700699 
	C121.661560,74.258583 121.336464,73.475899 121.021622,72.354645 
z"/>
<path fill="#FDE7CF" opacity="1.000000" stroke="none" 
	d="
M123.024231,80.355667 
	C123.354729,80.797333 123.674500,81.577049 123.991562,82.696457 
	C123.663734,82.255341 123.338615,81.474541 123.024231,80.355667 
z"/>
<path fill="#FDE7CF" opacity="1.000000" stroke="none" 
	d="
M122.022720,76.355072 
	C122.353401,76.797356 122.673645,77.577988 122.990761,78.698792 
	C122.662514,78.257118 122.337402,77.475273 122.022720,76.355072 
z"/>
<path fill="#030304" opacity="1.000000" stroke="none" 
	d="
M113.951569,200.359299 
	C114.127350,200.565201 114.362579,201.093445 114.403900,201.796829 
	C114.143669,201.541870 114.077339,201.111740 113.951569,200.359299 
z"/>
<path fill="#461D01" opacity="1.000000" stroke="none" 
	d="
M126.003441,42.000389 
	C125.523720,42.017349 125.044006,42.034309 124.208862,41.982536 
	C124.352562,41.614445 124.851669,41.315086 125.677597,41.293221 
	C126.004425,41.570709 126.003441,42.000389 126.003441,42.000389 
z"/>
<path fill="#593723" opacity="1.000000" stroke="none" 
	d="
M126.220299,41.919132 
	C126.003441,42.000389 126.004425,41.570709 125.992828,41.356182 
	C126.145386,41.092922 126.309532,41.044193 126.723999,41.052910 
	C126.901428,41.431248 126.722374,41.673756 126.220299,41.919132 
z"/>
<path fill="#FDE7CF" opacity="1.000000" stroke="none" 
	d="
M118.130890,93.238770 
	C118.358299,93.117836 118.611885,93.309227 118.897064,93.810837 
	C118.675385,93.927612 118.418190,93.737625 118.130890,93.238770 
z"/>
<path fill="#BEB3AA" opacity="1.000000" stroke="none" 
	d="
M168.411194,202.996704 
	C168.330002,202.962418 168.200897,202.945068 168.247498,202.948792 
	C168.423187,202.969864 168.363312,203.013641 168.411194,202.996704 
z"/>
<path fill="#FDE7CF" opacity="1.000000" stroke="none" 
	d="
M119.130234,96.238556 
	C119.357964,96.117546 119.611801,96.309219 119.896950,96.811646 
	C119.675026,96.928284 119.417717,96.737907 119.130234,96.238556 
z"/>
<path fill="#444E66" opacity="1.000000" stroke="none" 
	d="
M250.259644,212.942230 
	C249.908401,212.615143 250.024429,212.326050 250.555939,212.022186 
	C250.702545,212.256454 250.621033,212.580719 250.259644,212.942230 
z"/>
<path fill="#FDE7CF" opacity="1.000000" stroke="none" 
	d="
M120.130951,98.237434 
	C120.355515,98.115822 120.608177,98.303795 120.897644,98.796280 
	C120.676140,98.919548 120.417679,98.734955 120.130951,98.237434 
z"/>
<path fill="#461D01" opacity="1.000000" stroke="none" 
	d="
M157.865112,30.714413 
	C157.594589,30.762037 157.360458,30.528929 157.052902,30.054985 
	C157.286819,30.020658 157.594147,30.227169 157.865112,30.714413 
z"/>
<path fill="#FDE7CF" opacity="1.000000" stroke="none" 
	d="
M126.022026,65.735519 
	C125.661705,65.898331 125.412094,65.719627 125.117661,65.251434 
	C125.014847,65.042923 125.444717,65.005852 125.660126,64.993988 
	C125.941933,65.146423 126.008339,65.310715 126.022026,65.735519 
z"/>
<path fill="#79250A" opacity="1.000000" stroke="none" 
	d="
M141.362442,143.132812 
	C138.969559,142.759094 136.952194,142.424652 134.543060,142.137085 
	C133.774231,139.415237 133.397186,136.646545 133.407883,133.482208 
	C138.537979,134.444382 143.151123,132.903183 143.868301,129.165527 
	C144.581421,125.448982 146.828491,123.928291 150.434967,122.999847 
	C154.913361,123.668625 159.543304,123.314445 162.876663,125.223816 
	C169.348251,128.930801 174.884811,134.100784 177.056824,141.776993 
	C178.349442,146.345322 180.854752,149.034576 186.036163,148.358429 
	C188.047821,153.144989 190.023300,157.573105 191.612686,161.994843 
	C187.151062,160.992310 183.075531,159.996155 178.804077,158.726135 
	C176.481293,157.174759 174.396423,155.820068 172.219147,154.635178 
	C167.107254,151.853210 166.996155,150.810410 171.322067,147.237381 
	C172.027588,146.654648 172.591599,145.396164 172.494812,144.531265 
	C172.434479,143.992142 171.056625,143.361603 170.189835,143.198669 
	C168.036179,142.793839 165.839798,142.482819 163.654083,142.435791 
	C162.484894,142.410629 161.302292,143.009659 159.698380,143.442261 
	C165.600891,149.641190 165.161865,151.018997 157.540436,152.923630 
	C157.067200,153.041901 156.548141,152.976791 155.884811,152.689972 
	C153.988220,148.826141 152.451370,145.047958 147.494644,145.168472 
	C145.575760,144.503006 143.656860,143.837555 141.362442,143.132812 
z"/>
<path fill="#74260C" opacity="1.000000" stroke="none" 
	d="
M156.050400,152.996979 
	C156.548141,152.976791 157.067200,153.041901 157.540436,152.923630 
	C165.161865,151.018997 165.600891,149.641190 159.698380,143.442261 
	C161.302292,143.009659 162.484894,142.410629 163.654083,142.435791 
	C165.839798,142.482819 168.036179,142.793839 170.189835,143.198669 
	C171.056625,143.361603 172.434479,143.992142 172.494812,144.531265 
	C172.591599,145.396164 172.027588,146.654648 171.322067,147.237381 
	C166.996155,150.810410 167.107254,151.853210 172.219147,154.635178 
	C174.396423,155.820068 176.481293,157.174759 178.803955,159.158844 
	C178.384079,164.611389 177.957458,169.391571 177.107330,174.095215 
	C175.905014,180.747391 174.389969,187.343063 173.008591,193.962891 
	C170.923096,193.675095 168.837616,193.387314 166.359375,192.664795 
	C166.002045,190.121994 166.037460,188.013947 166.072861,185.905899 
	C166.022446,183.942749 165.972015,181.979584 165.942993,179.154373 
	C165.378510,175.524414 164.792648,172.756531 164.206787,169.988632 
	C161.705704,165.070786 159.204620,160.152939 156.367523,154.752899 
	C156.037811,153.846146 156.044098,153.421555 156.050400,152.996979 
z"/>
<path fill="#D3EAEA" opacity="1.000000" stroke="none" 
	d="
M128.586304,167.019516 
	C129.150757,167.646317 129.715210,168.273102 130.598938,169.430557 
	C133.058380,179.973618 137.973465,190.285995 127.782570,198.965271 
	C126.405006,198.196762 125.027443,197.428238 124.159256,196.120819 
	C124.791084,193.671341 125.514610,191.551529 124.934616,189.885483 
	C122.024963,181.527359 123.559700,174.032104 128.586304,167.019516 
M131.985641,189.332001 
	C131.210190,185.247162 130.434738,181.162338 129.709183,177.340378 
	C126.700241,179.110245 124.419136,185.736557 126.811028,188.997528 
	C127.538223,189.988937 129.971756,189.728775 131.985641,189.332001 
z"/>
<path fill="#08090A" opacity="1.000000" stroke="none" 
	d="
M128.207321,167.081848 
	C123.559700,174.032104 122.024963,181.527359 124.934616,189.885483 
	C125.514610,191.551529 124.791084,193.671341 124.280853,195.770660 
	C121.867119,193.216812 118.971146,190.749893 117.996643,187.674179 
	C115.978592,181.304810 121.681137,170.310745 128.207321,167.081848 
z"/>
<path fill="#060708" opacity="1.000000" stroke="none" 
	d="
M155.884811,152.689972 
	C156.044098,153.421555 156.037811,153.846146 156.068268,154.585739 
	C156.744217,158.427155 154.790497,160.560944 151.841827,162.651520 
	C151.559174,162.990860 151.238113,162.960632 150.919312,162.915543 
	C150.389389,162.909256 150.178268,162.948044 149.984894,162.987030 
	C150.002609,162.987244 150.022446,163.016220 150.022446,163.016220 
	C148.372467,161.363297 146.870972,159.515808 145.031006,158.111877 
	C143.171356,156.692917 140.976395,155.713440 138.928314,154.541428 
	C139.214523,153.993240 139.500732,153.445038 139.786942,152.896835 
	C143.469910,154.662506 147.152893,156.428162 152.006012,158.754791 
	C150.237213,153.919022 148.764145,149.891693 147.392853,145.516418 
	C152.451370,145.047958 153.988220,148.826141 155.884811,152.689972 
z"/>
<path fill="#0C0E0F" opacity="1.000000" stroke="none" 
	d="
M128.176544,199.016602 
	C137.973465,190.285995 133.058380,179.973618 130.824646,169.586060 
	C131.249619,169.138412 132.114487,168.839294 132.236755,169.026123 
	C136.904465,176.159073 140.490005,185.818283 134.961548,194.512024 
	C133.660461,196.558014 130.743896,197.576675 128.176544,199.016602 
z"/>
<path fill="#030304" opacity="1.000000" stroke="none" 
	d="
M151.238113,162.960632 
	C151.238113,162.960632 151.559174,162.990860 151.719299,162.998230 
	C152.755234,165.256851 153.724640,167.477280 154.479691,169.768341 
	C155.188766,171.919968 155.671387,174.146210 156.253662,176.339615 
	C155.757706,176.578430 155.261749,176.817245 154.765793,177.056061 
	C151.887421,173.816269 148.640625,170.819977 146.275330,167.241104 
	C144.955338,165.243866 145.368378,162.467102 149.606201,163.003540 
	C150.022446,163.016220 150.002609,162.987244 150.078339,163.218079 
	C150.515411,163.286133 150.876755,163.123383 151.238113,162.960632 
z"/>
<path fill="#08090A" opacity="1.000000" stroke="none" 
	d="
M165.756287,186.064789 
	C166.037460,188.013947 166.002045,190.121994 165.968384,192.620941 
	C165.672592,193.770355 165.375076,194.528900 165.053772,195.592346 
	C164.775192,196.124344 164.520370,196.351471 164.111237,196.782593 
	C162.052567,198.494614 160.148254,200.002625 158.243927,201.510635 
	C157.845276,201.146896 157.446625,200.783157 157.047974,200.419403 
	C159.845215,195.687500 162.642471,190.955582 165.756287,186.064789 
z"/>
<path fill="#030304" opacity="1.000000" stroke="none" 
	d="
M163.946838,170.278549 
	C164.792648,172.756531 165.378510,175.524414 165.896088,178.736664 
	C163.493591,181.541046 161.159424,183.901077 158.432068,185.977646 
	C158.023148,185.455612 158.007401,185.217072 157.991653,184.978546 
	C159.312943,181.505035 160.617233,178.024918 161.964050,174.561340 
	C162.489029,173.211212 163.109756,171.898315 163.946838,170.278549 
z"/>
<path fill="#060708" opacity="1.000000" stroke="none" 
	d="
M157.631897,184.975800 
	C158.007401,185.217072 158.023148,185.455612 158.072281,186.054703 
	C157.379684,187.629807 156.653702,188.844391 155.939392,190.039459 
	C150.953232,187.365494 149.356766,183.770111 150.920776,176.800476 
	C153.434494,180.034973 155.353317,182.503998 157.631897,184.975800 
z"/>
<path fill="#060708" opacity="1.000000" stroke="none" 
	d="
M150.193771,193.874252 
	C152.091278,197.559326 155.235947,200.578094 153.477005,204.839478 
	C152.917343,205.062759 152.357681,205.286041 151.798019,205.509323 
	C150.039215,201.305634 148.280411,197.101944 146.521622,192.898254 
	C146.910950,192.653030 147.300262,192.407806 147.689590,192.162582 
	C148.448425,192.635620 149.207245,193.108643 150.193771,193.874252 
z"/>
<path fill="#060708" opacity="1.000000" stroke="none" 
	d="
M142.174316,204.147919 
	C145.456940,207.355743 144.306839,210.185837 141.455627,213.609650 
	C139.439545,209.930695 139.633759,207.051163 142.174316,204.147919 
z"/>
<path fill="#000000" opacity="1.000000" stroke="none" 
	d="
M138.672180,146.210129 
	C139.740036,146.524307 140.465103,146.834763 142.127777,147.546677 
	C139.615280,148.248108 138.032898,148.689865 136.450500,149.131638 
	C136.227936,148.757629 136.005371,148.383621 135.782806,148.009613 
	C136.631668,147.408539 137.480515,146.807465 138.672180,146.210129 
z"/>
<path fill="#FFFFFF" opacity="1.000000" stroke="none" 
	d="
M164.091934,198.442520 
	C164.419510,198.645233 164.712555,199.150650 164.960144,199.975983 
	C164.914673,200.295868 164.478409,200.062531 164.236023,200.012360 
	C164.014908,199.556549 164.036163,199.150879 164.091934,198.442520 
z"/>
<path fill="#9D5B2D" opacity="1.000000" stroke="none" 
	d="
M262.024170,72.873520 
	C262.024170,72.873520 262.128845,73.202354 262.167114,73.366570 
	C262.721344,81.595779 263.483673,89.654427 263.691956,97.727356 
	C263.961792,108.184830 263.840546,118.654037 263.770782,129.117416 
	C263.754395,131.574295 263.116547,134.022476 263.026550,136.484238 
	C262.639160,147.080414 262.349365,157.680145 261.901855,168.946808 
	C261.527924,169.801880 261.261749,169.965271 260.545258,170.087585 
	C258.070099,170.081848 256.030884,170.093750 253.994186,169.630371 
	C253.663712,151.290085 253.438599,133.422043 252.932388,115.561943 
	C252.779175,110.156174 251.914459,104.764320 251.257416,99.380524 
	C250.221680,90.893562 249.085938,82.418800 248.366333,73.756348 
	C253.168167,73.340378 257.596161,73.106949 262.024170,72.873520 
z"/>
<path fill="#461D01" opacity="1.000000" stroke="none" 
	d="
M260.981171,170.105209 
	C261.261749,169.965271 261.527924,169.801880 261.919495,169.429764 
	C264.756958,168.844315 267.454590,168.444138 270.827881,168.200302 
	C272.697784,170.248520 273.892090,172.140411 274.836487,174.305786 
	C270.730438,175.409775 266.874268,176.240234 263.008789,176.693054 
	C262.326691,174.245331 261.653931,172.175262 260.981171,170.105209 
z"/>
<path fill="#4A2101" opacity="1.000000" stroke="none" 
	d="
M275.086395,174.032288 
	C273.892090,172.140411 272.697784,170.248520 271.225983,168.159851 
	C272.765259,167.085648 274.582031,166.208237 276.694977,165.156433 
	C277.166412,164.978958 277.341705,164.975906 277.778900,164.947296 
	C278.696167,165.998245 279.351501,167.074768 279.825867,168.653259 
	C279.447083,169.654327 279.249298,170.153442 279.051514,170.652557 
	C278.464203,171.593018 277.876892,172.533493 276.832031,173.772675 
	C275.945099,174.058365 275.515747,174.045319 275.086395,174.032288 
z"/>
<path fill="#A35F2F" opacity="1.000000" stroke="none" 
	d="
M274.836487,174.305786 
	C275.515747,174.045319 275.945099,174.058365 276.697357,174.077820 
	C276.312927,181.033661 275.605591,187.983093 274.590576,195.546570 
	C271.487701,197.997604 268.692474,199.834610 265.897247,201.671631 
	C264.551605,201.836273 263.205994,202.000916 261.439636,201.717957 
	C261.346344,193.515106 261.673737,185.759888 262.122986,177.801727 
	C262.452393,177.349182 262.710114,177.173141 263.018097,177.070709 
	C266.874268,176.240234 270.730438,175.409775 274.836487,174.305786 
z"/>
<path fill="#4A2101" opacity="1.000000" stroke="none" 
	d="
M266.028381,202.023438 
	C268.692474,199.834610 271.487701,197.997604 274.567444,195.969681 
	C277.306183,198.768082 276.059326,201.057648 273.284973,202.748413 
	C271.611023,203.768570 269.648407,204.315155 267.447998,205.128723 
	C266.773468,204.247009 266.466492,203.311127 266.028381,202.023438 
z"/>
<path fill="#08090A" opacity="1.000000" stroke="none" 
	d="
M283.916382,173.299042 
	C284.525146,173.246613 284.972260,173.504181 285.654907,173.865784 
	C286.898254,177.148819 287.906067,180.327789 288.913879,183.506760 
	C288.505859,183.831039 288.097809,184.155334 287.689758,184.479614 
	C285.552948,182.087082 283.249878,179.809479 281.439606,177.191193 
	C281.130646,176.744339 282.929626,174.840027 283.916382,173.299042 
z"/>
<path fill="#08090A" opacity="1.000000" stroke="none" 
	d="
M289.638245,190.762100 
	C290.119598,190.973038 290.324310,190.988510 290.836548,191.034393 
	C290.102081,192.005096 289.060089,192.945404 287.375671,194.465439 
	C286.032471,191.623093 284.887665,189.200577 283.742889,186.778061 
	C284.358643,186.363785 284.974396,185.949524 285.590179,185.535263 
	C286.847321,187.212387 288.104462,188.889511 289.638245,190.762100 
z"/>
<path fill="#060708" opacity="1.000000" stroke="none" 
	d="
M279.444489,170.738388 
	C279.249298,170.153442 279.447083,169.654327 279.867554,168.984619 
	C281.010529,169.338089 281.930908,169.862152 282.937805,170.700897 
	C281.962067,170.951782 280.899750,170.888000 279.444489,170.738388 
z"/>
<path fill="#883612" opacity="1.000000" stroke="none" 
	d="
M132.992813,81.992638 
	C133.362274,80.243179 133.731735,78.493721 134.553406,76.367111 
	C139.167664,76.357193 142.382843,75.106819 144.552673,71.211189 
	C145.642303,69.254898 147.493988,67.723068 149.434692,65.999725 
	C152.466400,66.333115 155.071762,66.998695 157.661301,66.942055 
	C169.536407,66.682312 178.629272,72.488625 186.797333,80.277985 
	C182.729904,82.370422 178.865128,84.185364 174.618408,85.957092 
	C167.138580,83.778755 160.112595,81.102768 152.502502,82.066551 
	C150.843506,82.276657 148.207458,82.962257 147.861938,84.026443 
	C145.588028,91.030090 139.531616,90.910263 134.047241,91.582428 
	C133.987473,88.079384 137.435837,84.583527 132.992813,81.992638 
z"/>
<path fill="#903C14" opacity="1.000000" stroke="none" 
	d="
M149.001038,65.999283 
	C147.493988,67.723068 145.642303,69.254898 144.552673,71.211189 
	C142.382843,75.106819 139.167664,76.357193 134.609833,75.982040 
	C134.517899,71.681030 134.505341,67.335182 135.209915,63.108891 
	C135.998138,58.380756 139.642105,55.788139 143.827408,54.218796 
	C148.173584,52.589142 152.673294,51.368927 157.952515,49.974033 
	C162.373215,50.212051 165.962219,50.773109 169.518127,50.610462 
	C176.689911,50.282417 183.843674,49.560818 191.002960,49.334366 
	C190.999878,50.110966 190.998718,50.554756 190.592285,51.006943 
	C185.457809,52.010586 180.728607,53.005829 175.653015,54.151592 
	C171.800110,55.267914 168.078583,55.776615 164.835327,57.302120 
	C159.396835,59.860184 154.263046,63.066029 149.001038,65.999283 
z"/>
<path fill="#834424" opacity="1.000000" stroke="none" 
	d="
M191.004883,49.001564 
	C183.843674,49.560818 176.689911,50.282417 169.518127,50.610462 
	C165.962219,50.773109 162.373215,50.212051 158.336090,49.955849 
	C158.261230,49.139442 158.649475,48.345589 159.071503,47.219936 
	C167.119080,46.639713 175.132858,46.391296 183.973190,46.141548 
	C185.880432,46.051132 186.961136,45.962044 188.268860,45.906303 
	C188.495880,45.939651 188.943283,45.837444 189.365845,45.893223 
	C196.868713,44.631611 203.949051,43.314220 211.029373,41.996826 
	C211.469925,42.029854 211.910477,42.062881 212.604309,42.466209 
	C205.573349,44.891525 198.289108,46.946545 191.004883,49.001564 
z"/>
<path fill="#6A2C17" opacity="1.000000" stroke="none" 
	d="
M132.649902,82.036377 
	C137.435837,84.583527 133.987473,88.079384 134.032791,91.983276 
	C134.013306,93.862083 134.006653,94.930740 133.640869,95.999496 
	C132.563522,96.001213 131.845291,96.002823 131.127060,96.004433 
	C130.946594,92.079803 130.766129,88.155182 130.702515,83.804108 
	C131.315247,82.945145 131.811111,82.512634 132.649902,82.036377 
z"/>
<path fill="#593723" opacity="1.000000" stroke="none" 
	d="
M154.158661,46.822960 
	C149.437943,46.296757 144.930557,45.903755 140.549942,44.936569 
	C137.976013,44.368279 135.603638,42.887131 133.080231,41.465706 
	C140.095657,42.361732 147.171432,43.608635 154.637054,45.005375 
	C154.826340,45.675106 154.625793,46.195004 154.158661,46.822960 
z"/>
<path fill="#642513" opacity="1.000000" stroke="none" 
	d="
M131.059723,96.468582 
	C131.845291,96.002823 132.563522,96.001213 133.643311,96.460114 
	C134.012665,100.611893 134.020477,104.303162 134.018204,108.423256 
	C134.011597,110.567383 134.015076,112.282684 134.013062,114.456245 
	C133.995438,118.280266 133.983337,121.646027 133.971237,125.011787 
	C133.041580,124.769989 132.111938,124.528191 130.991470,123.969177 
	C130.864578,114.745552 130.928482,105.839142 131.059723,96.468582 
z"/>
<path fill="#444E66" opacity="1.000000" stroke="none" 
	d="
M251.893646,204.128723 
	C249.541153,207.425735 247.204117,210.638107 244.095215,214.911423 
	C246.694260,214.358749 247.976883,214.086014 249.610809,213.918060 
	C246.056656,216.941681 242.151215,219.860519 237.968033,222.986923 
	C237.911224,222.942535 238.809814,223.644882 239.841324,224.669647 
	C235.047348,225.206863 230.429184,228.162796 225.129776,225.581970 
	C219.787170,222.980118 217.129822,218.732422 215.757828,213.466080 
	C213.168961,203.528915 211.042435,193.432419 216.772232,183.877502 
	C217.875473,182.037720 220.686035,181.016464 222.908249,180.101761 
	C226.126175,178.777191 229.525726,177.893829 232.847794,176.822266 
	C232.695557,176.292923 232.543304,175.763580 232.391068,175.234238 
	C230.864914,175.699142 229.363022,176.341202 227.802475,176.554932 
	C227.010117,176.663467 226.112061,176.000168 225.136444,175.348572 
	C225.011124,175.011368 224.977524,175.017883 225.277008,175.096527 
	C226.036209,174.819504 226.495911,174.463852 227.312683,173.930786 
	C229.773682,173.500259 231.877609,173.247147 234.302704,173.105011 
	C235.703445,173.502121 236.783005,173.788223 237.914566,174.455780 
	C238.727646,177.349152 239.488708,179.861084 240.531372,183.302429 
	C237.164154,182.027542 234.918777,181.177399 232.673386,180.327255 
	C232.542511,180.621231 232.411636,180.915192 232.280762,181.209167 
	C234.987915,183.161423 237.695068,185.113678 239.983673,187.093903 
	C236.833954,187.010468 236.200119,188.778870 237.343567,190.588074 
	C238.849274,192.970459 241.042114,194.918564 242.939514,197.053375 
	C243.381500,196.831299 243.823471,196.609207 244.265457,196.387115 
	C243.120667,193.244934 241.975891,190.102753 241.168945,186.825195 
	C242.414185,184.793930 243.321594,182.898026 244.499146,181.194763 
	C246.550354,185.119583 248.331421,188.851776 249.816986,192.853043 
	C248.389221,196.580185 247.256958,200.038284 246.124695,203.496384 
	C246.786636,204.096817 247.448578,204.697266 248.110519,205.297699 
	C249.059525,203.540405 250.008530,201.783096 251.024475,200.353897 
	C251.376205,201.746643 251.661011,202.811279 251.945816,203.875916 
	C251.945816,203.875916 251.909103,204.044067 251.893646,204.128723 
M225.998016,211.982544 
	C225.998016,211.982544 225.911163,211.907440 226.642593,212.129669 
	C232.755066,207.120468 232.314743,196.879181 225.135513,191.090073 
	C224.498627,191.460938 223.861755,191.831787 222.872528,191.690582 
	C217.621033,193.843704 216.809067,198.939117 216.548019,203.362305 
	C216.401978,205.836838 219.457520,208.500351 221.039291,211.828079 
	C222.064835,212.223068 223.090363,212.618057 224.764709,212.982925 
	C225.155792,212.616837 225.546875,212.250748 225.998016,211.982544 
M239.933945,199.865753 
	C240.930618,202.301743 241.927277,204.737732 242.923935,207.173721 
	C245.289902,202.478928 243.493134,199.253250 239.933945,199.865753 
M239.893814,209.592438 
	C239.309433,209.764099 238.725052,209.935760 238.140656,210.107422 
	C239.131592,212.773361 240.122513,215.439285 241.113434,218.105209 
	C241.819611,217.826096 242.525787,217.546967 243.231964,217.267853 
	C242.287582,214.892807 241.343185,212.517761 239.893814,209.592438 
z"/>
<path fill="#843917" opacity="1.000000" stroke="none" 
	d="
M213.136688,183.299072 
	C212.189255,186.968903 211.241821,190.638718 209.657913,194.653320 
	C205.017441,194.994781 201.013412,194.991455 197.005920,194.566803 
	C198.552094,188.300262 200.017853,182.431030 201.684219,176.619293 
	C202.617615,173.363846 203.883316,170.203705 205.399994,167.002304 
	C208.534775,167.671295 211.268814,168.338593 214.001282,169.420822 
	C213.712051,174.323532 213.424377,178.811295 213.136688,183.299072 
z"/>
<path fill="#8D401D" opacity="1.000000" stroke="none" 
	d="
M213.418640,183.087769 
	C213.424377,178.811295 213.712051,174.323532 214.459076,169.419510 
	C218.279495,169.003601 221.640549,169.003937 225.001221,169.424637 
	C225.005280,171.246780 225.009720,172.648575 224.987625,174.291580 
	C224.961075,174.532806 224.977524,175.017883 224.977524,175.017883 
	C224.977524,175.017883 225.011124,175.011368 225.020874,174.997681 
	C221.253937,177.614807 217.477264,180.245621 213.418640,183.087769 
z"/>
<path fill="#792A0E" opacity="1.000000" stroke="none" 
	d="
M197.009399,194.988129 
	C201.013412,194.991455 205.017441,194.994781 209.478638,194.992371 
	C209.981308,196.050247 210.026794,197.113892 210.119751,198.573792 
	C204.487289,197.911331 198.807358,196.852600 193.440277,195.402222 
	C194.838547,195.003098 195.923981,194.995621 197.009399,194.988129 
z"/>
<path fill="#D4BCAA" opacity="1.000000" stroke="none" 
	d="
M144.046707,34.281372 
	C144.774124,32.951870 145.508408,31.976395 146.431763,30.749741 
	C148.080307,32.003754 149.731705,33.259933 151.699921,34.597549 
	C157.504105,36.557674 162.991470,38.436367 168.751282,40.947350 
	C169.004517,42.364475 168.985275,43.149307 168.966049,43.934139 
	C160.210251,42.044559 150.999802,41.373055 144.046707,34.281372 
z"/>
<path fill="#E8CDB5" opacity="1.000000" stroke="none" 
	d="
M169.424011,43.962189 
	C168.985275,43.149307 169.004517,42.364475 169.042114,41.186584 
	C171.417404,41.116405 173.774353,41.439281 176.517334,41.753525 
	C182.297546,42.047207 187.691727,42.349525 193.528687,42.567986 
	C196.378494,42.357327 198.785507,42.230530 201.597031,42.028099 
	C204.708984,41.973267 207.416428,41.994064 210.576630,42.005844 
	C203.949051,43.314220 196.868713,44.631611 189.282959,45.742409 
	C188.532303,45.648197 188.287079,45.760578 188.041840,45.872955 
	C186.961136,45.962044 185.880432,46.051132 184.398529,46.066025 
	C179.292206,45.324631 174.587097,44.657436 169.424011,43.962189 
z"/>
<path fill="#A26130" opacity="1.000000" stroke="none" 
	d="
M274.679230,45.926346 
	C275.651031,53.440582 276.323242,60.784698 276.991272,68.591484 
	C271.304535,68.274742 265.621918,67.495323 259.477295,66.239182 
	C256.690430,56.064247 254.365646,46.366035 252.040863,36.667820 
	C253.089432,36.724625 254.138000,36.781425 255.579285,36.813820 
	C262.107880,39.778351 268.243774,42.767288 274.679230,45.926346 
z"/>
<path fill="#9B5B2C" opacity="1.000000" stroke="none" 
	d="
M251.709045,36.458229 
	C254.365646,46.366035 256.690430,56.064247 259.030701,66.138733 
	C257.316711,66.659081 255.587250,66.803154 253.014954,66.960266 
	C249.449387,67.278404 246.726669,67.583511 243.991852,67.482330 
	C243.654282,65.299431 243.435974,63.495102 242.984772,61.751022 
	C241.015030,54.137241 238.977661,46.540955 236.964828,38.938316 
	C238.784363,38.103649 240.603897,37.268978 242.723770,36.276566 
	C245.808472,36.162094 248.592850,36.205368 251.709045,36.458229 
z"/>
<path fill="#3B1401" opacity="1.000000" stroke="none" 
	d="
M244.003937,67.888618 
	C246.726669,67.583511 249.449387,67.278404 252.583801,67.006927 
	C255.952896,68.755844 258.910309,70.471138 261.945923,72.529968 
	C257.596161,73.106949 253.168167,73.340378 247.967560,73.734421 
	C246.134094,73.981506 245.073227,74.067986 243.757919,74.124832 
	C243.333557,74.111031 243.163666,74.126869 242.613419,74.105026 
	C241.234055,73.929764 240.235031,73.792183 239.203918,73.381699 
	C239.105331,72.748962 239.038849,72.389137 239.121674,71.766167 
	C239.853195,70.685280 240.435379,69.867538 241.322632,68.948082 
	C242.419785,68.527122 243.211853,68.207870 244.003937,67.888618 
z"/>
<path fill="#792A0E" opacity="1.000000" stroke="none" 
	d="
M173.431183,193.974121 
	C174.389969,187.343063 175.905014,180.747391 177.107330,174.095215 
	C177.957458,169.391571 178.384079,164.611389 178.999878,159.432693 
	C183.075531,159.996155 187.151062,160.992310 191.613297,162.244675 
	C192.000000,162.500900 192.000610,163.000610 191.953613,163.393768 
	C189.888336,170.887344 187.873093,177.988617 185.850418,185.087769 
	C184.912354,188.380173 183.959839,191.668457 183.013870,194.958618 
	C179.960495,194.634186 176.907135,194.309753 173.431183,193.974121 
z"/>
<path fill="#7D3113" opacity="1.000000" stroke="none" 
	d="
M183.465668,194.972733 
	C183.959839,191.668457 184.912354,188.380173 185.850418,185.087769 
	C187.873093,177.988617 189.888336,170.887344 192.342072,163.400543 
	C196.851440,164.342972 200.925354,165.671783 204.999268,167.000610 
	C203.883316,170.203705 202.617615,173.363846 201.684219,176.619293 
	C200.017853,182.431030 198.552094,188.300262 197.005920,194.566803 
	C195.923981,194.995621 194.838547,195.003098 193.344254,195.026520 
	C189.929413,195.023911 186.923431,195.005371 183.465668,194.972733 
z"/>
<path fill="#98401A" opacity="1.000000" stroke="none" 
	d="
M241.017548,69.049789 
	C240.435379,69.867538 239.853195,70.685280 238.871460,71.760605 
	C238.304977,72.012688 238.138046,72.007202 237.970978,71.593994 
	C235.963013,63.412804 234.494080,55.445045 231.782776,47.925228 
	C229.469528,41.509392 227.638245,41.204956 220.686279,43.143806 
	C218.577179,44.180958 216.784866,45.085293 214.598282,45.999718 
	C211.470779,46.675087 208.737518,47.340359 205.603088,48.011391 
	C201.469772,48.679199 197.737625,49.341248 193.709442,50.127281 
	C192.608109,50.500359 191.802826,50.749451 190.997559,50.998543 
	C190.998718,50.554756 190.999878,50.110966 191.002960,49.334373 
	C198.289108,46.946545 205.573349,44.891525 212.934570,42.492615 
	C213.451599,42.109509 213.891602,42.070297 214.863159,42.266716 
	C216.926147,42.008835 218.457626,41.515316 219.989090,41.021801 
	C223.051758,40.130939 226.114410,39.240074 229.500153,38.191223 
	C230.912598,39.001762 232.001953,39.970284 233.637939,41.211639 
	C238.875061,50.074810 240.283554,59.478703 241.017548,69.049789 
z"/>
<path fill="#A25024" opacity="1.000000" stroke="none" 
	d="
M241.322632,68.948082 
	C240.283554,59.478703 238.875061,50.074810 234.024918,41.142174 
	C234.693192,40.209152 235.521103,39.618420 236.656921,38.983002 
	C238.977661,46.540955 241.015030,54.137241 242.984772,61.751022 
	C243.435974,63.495102 243.654282,65.299431 243.991852,67.482330 
	C243.211853,68.207870 242.419785,68.527122 241.322632,68.948082 
z"/>
<path fill="#9F5C2D" opacity="1.000000" stroke="none" 
	d="
M262.001160,178.004669 
	C261.673737,185.759888 261.346344,193.515106 261.034424,201.758698 
	C259.334595,202.604492 257.619293,202.961914 255.351105,202.930359 
	C254.531982,200.759323 254.065048,198.980560 254.035751,197.194611 
	C253.933670,190.969238 253.983078,184.741394 254.407898,178.395081 
	C257.227661,178.185333 259.614410,178.095001 262.001160,178.004669 
z"/>
<path fill="#95542A" opacity="1.000000" stroke="none" 
	d="
M253.974869,178.514481 
	C253.983078,184.741394 253.933670,190.969238 254.035751,197.194611 
	C254.065048,198.980560 254.531982,200.759323 254.959808,202.969452 
	C254.284027,203.593674 253.446671,203.789841 252.277573,203.930969 
	C251.661011,202.811279 251.376205,201.746643 251.134628,199.998489 
	C250.822739,197.071304 250.467621,194.827652 250.112503,192.583984 
	C248.331421,188.851776 246.550354,185.119583 244.418182,180.805206 
	C243.920822,179.438797 243.774551,178.654556 244.104340,177.909332 
	C247.713989,177.979462 250.847549,178.010559 253.964478,178.159668 
	C253.947845,178.277679 253.974869,178.514481 253.974869,178.514481 
z"/>
<path fill="#7F2A0B" opacity="1.000000" stroke="none" 
	d="
M133.976395,125.422325 
	C133.983337,121.646027 133.995438,118.280266 134.386017,114.499588 
	C139.664948,116.766396 142.796265,112.821312 145.642349,110.423111 
	C151.920486,105.132973 158.496674,106.776321 165.202682,108.362518 
	C165.966965,108.543297 166.408707,110.087616 166.840103,111.320213 
	C164.986938,114.913559 163.209061,117.166763 158.653946,117.401291 
	C155.681305,117.554344 152.879135,121.018654 150.000610,122.999695 
	C146.828491,123.928291 144.581421,125.448982 143.868301,129.165527 
	C143.151123,132.903183 138.537979,134.444382 133.422577,133.039154 
	C133.360214,130.605469 133.670883,128.219162 133.976395,125.422325 
z"/>
<path fill="#834424" opacity="1.000000" stroke="none" 
	d="
M219.602295,41.016769 
	C218.457626,41.515316 216.926147,42.008835 215.194580,42.261543 
	C216.401489,41.684406 217.808487,41.348072 219.602295,41.016769 
z"/>
<path fill="#7B2A0E" opacity="1.000000" stroke="none" 
	d="
M150.434967,122.999847 
	C152.879135,121.018654 155.681305,117.554344 158.653946,117.401291 
	C163.209061,117.166763 164.986938,114.913559 167.241776,111.320328 
	C171.202225,112.666420 174.601120,114.332909 178.154480,116.304649 
	C180.112854,118.879951 182.599121,120.887062 183.593964,123.468864 
	C186.699631,131.528534 189.241440,139.805466 191.573227,147.998810 
	C189.429764,147.999634 187.714874,147.999817 186.000000,148.000000 
	C180.854752,149.034576 178.349442,146.345322 177.056824,141.776993 
	C174.884811,134.100784 169.348251,128.930801 162.876663,125.223816 
	C159.543304,123.314445 154.913361,123.668625 150.434967,122.999847 
z"/>
<path fill="#7E240D" opacity="1.000000" stroke="none" 
	d="
M186.036163,148.358429 
	C187.714874,147.999817 189.429764,147.999634 192.023010,147.999161 
	C195.600906,147.999237 198.300461,147.999619 201.348480,148.152008 
	C204.132248,148.867310 206.567505,149.430603 209.397095,150.002899 
	C211.857178,150.348404 213.922958,150.684921 216.195862,151.294983 
	C217.923126,152.053894 219.443283,152.539246 221.114136,153.307770 
	C222.505966,154.401337 223.747101,155.211731 225.126587,156.308182 
	C226.178085,157.728882 227.091217,158.863525 228.005707,160.419403 
	C227.976974,163.919571 228.748520,167.293655 225.001617,169.004272 
	C221.640549,169.003937 218.279495,169.003601 214.460632,169.004578 
	C211.268814,168.338593 208.534775,167.671295 205.399994,167.002289 
	C200.925354,165.671783 196.851440,164.342972 192.389069,163.007385 
	C192.000610,163.000610 192.000000,162.500900 191.999390,162.251068 
	C190.023300,157.573105 188.047821,153.144989 186.036163,148.358429 
z"/>
<path fill="#131515" opacity="1.000000" stroke="none" 
	d="
M131.804718,189.686920 
	C129.971756,189.728775 127.538223,189.988937 126.811028,188.997528 
	C124.419136,185.736557 126.700241,179.110245 129.709183,177.340378 
	C130.434738,181.162338 131.210190,185.247162 131.804718,189.686920 
z"/>
<path fill="#444F67" opacity="1.000000" stroke="none" 
	d="
M150.919312,162.915543 
	C150.876755,163.123383 150.515411,163.286133 150.060608,163.217865 
	C150.178268,162.948044 150.389389,162.909256 150.919312,162.915543 
z"/>
<path fill="#975529" opacity="1.000000" stroke="none" 
	d="
M244.012375,74.154465 
	C245.073227,74.067986 246.134094,73.981506 247.593735,73.916954 
	C249.085938,82.418800 250.221680,90.893562 251.257416,99.380524 
	C251.914459,104.764320 252.779175,110.156174 252.932388,115.561943 
	C253.438599,133.422043 253.663712,151.290085 253.745377,169.735168 
	C252.997009,170.530991 252.499985,170.746735 251.576248,170.931625 
	C247.428406,170.321884 243.707245,169.743011 240.033752,168.743652 
	C241.720825,154.047211 244.013168,139.807953 244.817917,125.485115 
	C245.639145,110.868721 245.044144,96.169930 244.954483,81.507912 
	C244.939484,79.054932 244.341156,76.605522 244.012375,74.154465 
z"/>
<path fill="#360F00" opacity="1.000000" stroke="none" 
	d="
M252.002945,170.962494 
	C252.499985,170.746735 252.997009,170.530991 253.742844,170.210449 
	C256.030884,170.093750 258.070099,170.081848 260.545258,170.087585 
	C261.653931,172.175262 262.326691,174.245331 263.008789,176.693039 
	C262.710114,177.173141 262.452393,177.349182 262.123016,177.801727 
	C259.614410,178.095001 257.227661,178.185333 254.407898,178.395081 
	C253.974869,178.514481 253.947845,178.277679 253.934738,177.790161 
	C253.282074,175.189240 252.642502,173.075867 252.002945,170.962494 
z"/>
<path fill="#85310F" opacity="1.000000" stroke="none" 
	d="
M134.028290,107.994431 
	C134.020477,104.303162 134.012665,100.611893 134.002426,96.460007 
	C134.006653,94.930740 134.013306,93.862083 134.034424,92.392593 
	C139.531616,90.910263 145.588028,91.030090 147.861938,84.026443 
	C148.207458,82.962257 150.843506,82.276657 152.502502,82.066551 
	C160.112595,81.102768 167.138580,83.778755 174.469650,86.261902 
	C172.612030,88.977699 172.759903,90.444496 176.215439,91.079582 
	C178.194458,91.443298 180.075073,92.342300 181.795074,93.278671 
	C180.059906,94.038025 178.529648,94.519012 176.549255,95.000000 
	C166.506104,92.260635 159.303833,96.767990 152.504944,102.681351 
	C150.767151,104.192818 148.895828,105.722557 146.818436,106.635208 
	C142.765167,108.415878 138.622711,110.760498 134.028290,107.994431 
z"/>
<path fill="#8B3C17" opacity="1.000000" stroke="none" 
	d="
M149.434692,65.999725 
	C154.263046,63.066029 159.396835,59.860184 164.835327,57.302120 
	C168.078583,55.776615 171.800110,55.267914 175.690125,54.499023 
	C184.049332,61.464321 192.025040,68.232712 199.782547,75.269836 
	C197.375549,76.691536 195.186752,77.844490 192.610519,78.998138 
	C190.482040,79.332726 188.741028,79.666618 187.000000,80.000504 
	C178.629272,72.488625 169.536407,66.682312 157.661301,66.942055 
	C155.071762,66.998695 152.466400,66.333115 149.434692,65.999725 
z"/>
<path fill="#8A3112" opacity="1.000000" stroke="none" 
	d="
M186.797333,80.277985 
	C188.741028,79.666618 190.482040,79.332726 193.013519,79.006973 
	C197.948608,80.081337 202.186493,80.884369 206.204529,82.307884 
	C208.808533,83.230431 212.375381,83.780243 211.660095,87.999054 
	C210.547409,88.333862 209.772797,88.665848 208.603241,89.005310 
	C206.139496,89.343491 204.070663,89.674187 201.646637,90.157913 
	C198.194504,90.874573 195.097549,91.438202 191.626648,92.164055 
	C188.168457,92.550949 185.084229,92.775627 182.000000,93.000305 
	C180.075073,92.342300 178.194458,91.443298 176.215439,91.079582 
	C172.759903,90.444496 172.612030,88.977699 174.851593,86.305115 
	C178.865128,84.185364 182.729904,82.370422 186.797333,80.277985 
z"/>
<path fill="#90431B" opacity="1.000000" stroke="none" 
	d="
M200.000763,75.001099 
	C192.025040,68.232712 184.049332,61.464321 176.036499,54.348503 
	C180.728607,53.005829 185.457809,52.010586 190.592285,51.006943 
	C191.802826,50.749451 192.608109,50.500359 193.708008,50.509716 
	C195.287140,52.934177 196.358902,55.266624 197.897812,57.233593 
	C201.820297,62.247177 205.951355,67.097572 209.763855,72.289398 
	C206.352768,73.377388 203.176758,74.189240 200.000763,75.001099 
z"/>
<path fill="#F9E9D7" opacity="1.000000" stroke="none" 
	d="
M188.268860,45.906303 
	C188.287079,45.760578 188.532303,45.648197 188.860413,45.686630 
	C188.943283,45.837444 188.495880,45.939651 188.268860,45.906303 
z"/>
<path fill="#802E0F" opacity="1.000000" stroke="none" 
	d="
M134.018204,108.423256 
	C138.622711,110.760498 142.765167,108.415878 146.818436,106.635208 
	C148.895828,105.722557 150.767151,104.192818 152.504944,102.681351 
	C159.303833,96.767990 166.506104,92.260635 176.584305,95.347153 
	C179.712799,99.129623 182.356094,102.564964 184.681564,106.158875 
	C181.081223,108.781479 176.092194,110.123863 178.000000,115.999390 
	C174.601120,114.332909 171.202225,112.666420 167.401672,110.999817 
	C166.408707,110.087616 165.966965,108.543297 165.202682,108.362518 
	C158.496674,106.776321 151.920486,105.132973 145.642349,110.423111 
	C142.796265,112.821312 139.664948,116.766396 134.391541,114.041336 
	C134.015076,112.282684 134.011597,110.567383 134.018204,108.423256 
z"/>
<path fill="#934721" opacity="1.000000" stroke="none" 
	d="
M225.001221,169.424637 
	C228.748520,167.293655 227.976974,163.919571 228.291718,160.169098 
	C229.119293,155.940155 230.123871,152.382019 230.118500,148.825439 
	C230.102417,138.165237 230.946976,127.280289 229.085190,116.908577 
	C227.188385,106.341927 222.477524,96.280418 219.214600,85.729538 
	C221.618317,84.637718 223.806244,83.814087 226.001892,83.374908 
	C229.717926,96.726631 233.408295,109.699150 237.193069,122.644066 
	C237.363373,123.226547 238.389206,123.558899 239.016693,124.473801 
	C238.368668,133.165787 237.893494,141.410187 237.018997,149.612000 
	C236.286209,156.484726 235.087189,163.307755 234.077209,170.507935 
	C234.033737,171.573380 234.007629,172.283707 233.981537,172.994019 
	C231.877609,173.247147 229.773682,173.500259 226.990646,173.886826 
	C225.879089,174.030289 225.446625,174.040329 225.014175,174.050354 
	C225.009720,172.648575 225.005280,171.246780 225.001221,169.424637 
z"/>
<path fill="#2F0702" opacity="1.000000" stroke="none" 
	d="
M234.302704,173.105011 
	C234.007629,172.283707 234.033737,171.573380 234.380569,170.335327 
	C235.805878,169.523148 236.910461,169.238678 238.339905,169.020142 
	C239.105225,169.112076 239.545670,169.138107 239.986099,169.164154 
	C243.707245,169.743011 247.428406,170.321884 251.576248,170.931610 
	C252.642502,173.075867 253.282074,175.189240 253.951385,177.672150 
	C250.847549,178.010559 247.713989,177.979462 243.844360,177.769287 
	C241.359726,176.418274 239.611145,175.246307 237.862564,174.074341 
	C236.783005,173.788223 235.703445,173.502121 234.302704,173.105011 
z"/>
<path fill="#0C0E0F" opacity="1.000000" stroke="none" 
	d="
M221.070450,211.078705 
	C219.457520,208.500351 216.401978,205.836838 216.548019,203.362305 
	C216.809067,198.939117 217.621033,193.843704 222.937561,192.311035 
	C222.391251,196.281403 221.779892,199.631317 221.143311,203.372925 
	C221.102203,206.202652 221.086334,208.640671 221.070450,211.078705 
z"/>
<path fill="#060708" opacity="1.000000" stroke="none" 
	d="
M237.914566,174.455780 
	C239.611145,175.246307 241.359726,176.418274 243.368301,177.730286 
	C243.774551,178.654556 243.920822,179.438797 244.148056,180.612579 
	C243.321594,182.898026 242.414185,184.793930 241.061798,186.849030 
	C240.616821,187.008240 240.402222,187.065933 240.402222,187.065918 
	C237.695068,185.113678 234.987915,183.161423 232.280762,181.209167 
	C232.411636,180.915192 232.542511,180.621231 232.673386,180.327255 
	C234.918777,181.177399 237.164154,182.027542 240.531372,183.302429 
	C239.488708,179.861084 238.727646,177.349152 237.914566,174.455780 
z"/>
<path fill="#C9DFDF" opacity="1.000000" stroke="none" 
	d="
M221.054871,211.453400 
	C221.086334,208.640671 221.102203,206.202652 221.372162,203.363510 
	C221.626251,202.962402 222.083267,202.928772 222.083267,202.928772 
	C222.083267,202.928772 222.538635,202.980133 222.626587,203.389679 
	C222.904938,206.364273 223.530029,208.281479 225.823929,207.149765 
	C225.823929,203.307663 225.823929,200.204498 226.084900,197.053986 
	C226.522491,197.014572 226.699127,197.022507 227.137131,197.346649 
	C228.310562,202.558044 229.071915,207.437500 225.911163,211.907440 
	C225.911163,211.907440 225.998016,211.982544 225.665527,211.899872 
	C224.927322,212.215805 224.521622,212.614426 224.115906,213.013031 
	C223.090363,212.618057 222.064835,212.223068 221.054871,211.453400 
z"/>
<path fill="#0C0E0F" opacity="1.000000" stroke="none" 
	d="
M226.276886,212.018555 
	C229.071915,207.437500 228.310562,202.558044 227.217773,196.964417 
	C226.603394,194.525925 226.169724,192.785858 225.736084,191.045792 
	C232.314743,196.879181 232.755066,207.120468 226.276886,212.018555 
z"/>
<path fill="#DCF5F5" opacity="1.000000" stroke="none" 
	d="
M225.435791,191.067932 
	C226.169724,192.785858 226.603394,194.525925 226.956421,196.648224 
	C226.699127,197.022507 226.522491,197.014572 225.772064,197.201477 
	C224.311722,199.257599 223.425171,201.118866 222.538635,202.980133 
	C222.538635,202.980133 222.083267,202.928772 222.083267,202.928772 
	C222.083267,202.928772 221.626251,202.962402 221.397400,202.971802 
	C221.779892,199.631317 222.391251,196.281403 223.113739,192.567078 
	C223.861755,191.831787 224.498627,191.460938 225.435791,191.067932 
z"/>
<path fill="#050405" opacity="1.000000" stroke="none" 
	d="
M239.983673,187.093918 
	C240.402222,187.065933 240.616821,187.008240 240.723969,186.984406 
	C241.975891,190.102753 243.120667,193.244934 244.265457,196.387115 
	C243.823471,196.609207 243.381500,196.831299 242.939514,197.053375 
	C241.042114,194.918564 238.849274,192.970459 237.343567,190.588074 
	C236.200119,188.778870 236.833954,187.010468 239.983673,187.093918 
z"/>
<path fill="#0C0E0F" opacity="1.000000" stroke="none" 
	d="
M249.816986,192.853043 
	C250.467621,194.827652 250.822739,197.071304 251.067688,199.670380 
	C250.008530,201.783096 249.059525,203.540405 248.110519,205.297699 
	C247.448578,204.697266 246.786636,204.096817 246.124695,203.496384 
	C247.256958,200.038284 248.389221,196.580185 249.816986,192.853043 
z"/>
<path fill="#060708" opacity="1.000000" stroke="none" 
	d="
M240.001709,199.500015 
	C243.493134,199.253250 245.289902,202.478928 242.923935,207.173721 
	C241.927277,204.737732 240.930618,202.301743 240.001709,199.500015 
z"/>
<path fill="#0C0E0F" opacity="1.000000" stroke="none" 
	d="
M240.146301,209.867584 
	C241.343185,212.517761 242.287582,214.892807 243.231964,217.267853 
	C242.525787,217.546967 241.819611,217.826096 241.113434,218.105209 
	C240.122513,215.439285 239.131592,212.773361 238.140656,210.107422 
	C238.725052,209.935760 239.309433,209.764099 240.146301,209.867584 
z"/>
<path fill="#050405" opacity="1.000000" stroke="none" 
	d="
M224.987625,174.291580 
	C225.446625,174.040329 225.879089,174.030289 226.633575,174.064240 
	C226.495911,174.463852 226.036209,174.819504 225.277008,175.096527 
	C224.977524,175.017883 224.961075,174.532806 224.987625,174.291580 
z"/>
<path fill="#0C0E0F" opacity="1.000000" stroke="none" 
	d="
M224.440308,212.997986 
	C224.521622,212.614426 224.927322,212.215805 225.635498,211.850922 
	C225.546875,212.250748 225.155792,212.616837 224.440308,212.997986 
z"/>
<path fill="#9F5527" opacity="1.000000" stroke="none" 
	d="
M214.992523,45.989624 
	C216.784866,45.085293 218.577179,44.180958 220.690125,43.516655 
	C221.203171,44.548611 221.223694,45.439598 221.614227,46.117397 
	C226.364883,54.362537 231.149902,62.588200 236.002808,70.773376 
	C236.353073,71.364159 237.301056,71.600555 237.971130,72.001724 
	C238.138046,72.007202 238.304977,72.012688 238.722137,72.023743 
	C239.038849,72.389137 239.105331,72.748962 239.119476,73.880936 
	C239.054932,80.439133 239.042740,86.225189 238.677734,91.955544 
	C237.226608,90.141266 236.062607,88.419701 235.045868,86.615166 
	C233.633072,84.107681 232.330719,81.537971 231.024872,78.637436 
	C233.058334,74.715942 230.961899,73.135628 228.004272,71.580544 
	C225.820236,66.443764 223.785294,61.623684 221.410355,56.977398 
	C219.482864,53.206554 217.147171,49.644363 214.992523,45.989624 
z"/>
<path fill="#9E4923" opacity="1.000000" stroke="none" 
	d="
M240.033752,168.743652 
	C239.545670,169.138107 239.105225,169.112076 238.333099,168.575195 
	C238.661469,161.854645 239.615540,155.659561 239.924988,149.432449 
	C240.759995,132.630188 241.320419,115.814278 241.995789,98.534943 
	C242.002762,95.604164 241.905975,93.137512 242.024567,90.681259 
	C242.290848,85.165665 242.664078,79.655235 242.993759,74.142708 
	C243.163666,74.126869 243.333557,74.111031 243.757919,74.124825 
	C244.341156,76.605522 244.939484,79.054932 244.954483,81.507912 
	C245.044144,96.169930 245.639145,110.868721 244.817917,125.485115 
	C244.013168,139.807953 241.720825,154.047211 240.033752,168.743652 
z"/>
<path fill="#8F3415" opacity="1.000000" stroke="none" 
	d="
M242.613419,74.105026 
	C242.664078,79.655235 242.290848,85.165665 242.024567,90.681259 
	C241.905975,93.137512 242.002762,95.604164 241.669250,98.533997 
	C240.901489,99.004494 240.466263,99.007095 240.021591,98.603226 
	C239.684967,96.134918 239.357758,94.073074 239.030548,92.011238 
	C239.042740,86.225189 239.054932,80.439133 239.151566,74.153839 
	C240.235031,73.792183 241.234055,73.929764 242.613419,74.105026 
z"/>
<path fill="#95491F" opacity="1.000000" stroke="none" 
	d="
M209.998962,72.013260 
	C205.951355,67.097572 201.820297,62.247177 197.897812,57.233593 
	C196.358902,55.266624 195.287140,52.934177 194.004059,50.385735 
	C197.737625,49.341248 201.469772,48.679199 205.605804,48.377945 
	C206.562576,49.885090 207.001175,51.105400 207.687149,52.165646 
	C211.760681,58.461674 215.891510,64.720650 219.584808,70.998138 
	C216.110672,71.340561 213.054825,71.676910 209.998962,72.013260 
z"/>
<path fill="#9B5023" opacity="1.000000" stroke="none" 
	d="
M220.003082,70.992073 
	C215.891510,64.720650 211.760681,58.461674 207.687149,52.165646 
	C207.001175,51.105400 206.562576,49.885090 206.006989,48.372185 
	C208.737518,47.340359 211.470779,46.675087 214.598267,45.999722 
	C217.147171,49.644363 219.482864,53.206554 221.410355,56.977398 
	C223.785294,61.623684 225.820236,66.443764 227.606964,71.542442 
	C224.808914,71.594795 222.406006,71.293434 220.003082,70.992073 
z"/>
<path fill="#A35A29" opacity="1.000000" stroke="none" 
	d="
M237.970978,71.593994 
	C237.301056,71.600555 236.353073,71.364159 236.002808,70.773376 
	C231.149902,62.588200 226.364883,54.362537 221.614227,46.117397 
	C221.223694,45.439598 221.203171,44.548611 221.006897,43.383835 
	C227.638245,41.204956 229.469528,41.509392 231.782776,47.925228 
	C234.494080,55.445045 235.963013,63.412804 237.970978,71.593994 
z"/>
<path fill="#7E2E12" opacity="1.000000" stroke="none" 
	d="
M178.154480,116.304642 
	C176.092194,110.123863 181.081223,108.781479 184.986130,106.306793 
	C188.457993,110.899170 192.274673,115.178741 193.945831,120.175835 
	C196.972076,129.224869 198.718994,138.701736 201.000000,148.000000 
	C198.300461,147.999619 195.600906,147.999237 192.451599,147.998520 
	C189.241440,139.805466 186.699631,131.528534 183.593964,123.468864 
	C182.599121,120.887062 180.112854,118.879951 178.154480,116.304642 
z"/>
<path fill="#823315" opacity="1.000000" stroke="none" 
	d="
M201.348495,148.152008 
	C198.718994,138.701736 196.972076,129.224869 193.945831,120.175835 
	C192.274673,115.178741 188.457993,110.899170 185.303955,106.148224 
	C182.356094,102.564964 179.712799,99.129623 177.034454,95.347145 
	C178.529648,94.519012 180.059906,94.038025 181.795074,93.278671 
	C185.084229,92.775627 188.168457,92.550949 191.626877,92.554138 
	C192.725601,94.759987 193.303192,96.807533 194.200806,98.703568 
	C197.600388,105.884621 202.224030,112.709755 204.287338,120.243813 
	C206.923325,129.869064 207.524597,140.051559 209.002777,149.993896 
	C206.567505,149.430603 204.132248,148.867310 201.348495,148.152008 
z"/>
<path fill="#863718" opacity="1.000000" stroke="none" 
	d="
M209.397095,150.002899 
	C207.524597,140.051559 206.923325,129.869064 204.287338,120.243813 
	C202.224030,112.709755 197.600388,105.884621 194.200806,98.703568 
	C193.303192,96.807533 192.725601,94.759987 192.000839,92.391922 
	C195.097549,91.438202 198.194504,90.874573 201.646606,90.550690 
	C202.281891,92.071243 202.266357,93.520668 202.886307,94.607666 
	C212.872864,112.118324 216.754852,131.024948 215.988739,151.021423 
	C213.922958,150.684921 211.857178,150.348404 209.397095,150.002899 
z"/>
<path fill="#8A3C1B" opacity="1.000000" stroke="none" 
	d="
M216.195862,151.294983 
	C216.754852,131.024948 212.872864,112.118324 202.886307,94.607666 
	C202.266357,93.520668 202.281891,92.071243 202.001801,90.397659 
	C204.070663,89.674187 206.139496,89.343491 208.640656,89.366394 
	C216.143311,102.969490 220.252930,117.188011 221.672668,132.033234 
	C222.333618,138.944534 221.254044,146.022308 220.963440,153.024612 
	C219.443283,152.539246 217.923126,152.053894 216.195862,151.294983 
z"/>
<path fill="#8F431F" opacity="1.000000" stroke="none" 
	d="
M218.998779,85.997734 
	C222.477524,96.280418 227.188385,106.341927 229.085190,116.908577 
	C230.946976,127.280289 230.102417,138.165237 230.118500,148.825439 
	C230.123871,152.382019 229.119293,155.940155 228.290375,159.747864 
	C227.091217,158.863525 226.178085,157.728882 225.140427,155.883972 
	C225.344940,147.656586 225.838470,140.142303 225.967651,132.621750 
	C226.212112,118.390068 222.059494,105.227570 215.853989,92.588867 
	C214.998093,90.845642 214.608032,88.873680 214.367279,86.967468 
	C216.154419,86.617462 217.576599,86.307602 218.998779,85.997734 
z"/>
<path fill="#8D401D" opacity="1.000000" stroke="none" 
	d="
M214.002304,87.007614 
	C214.608032,88.873680 214.998093,90.845642 215.853989,92.588867 
	C222.059494,105.227570 226.212112,118.390068 225.967651,132.621750 
	C225.838470,140.142303 225.344940,147.656586 225.002075,155.597916 
	C223.747101,155.211731 222.505966,154.401337 221.114136,153.307770 
	C221.254044,146.022308 222.333618,138.944534 221.672668,132.033234 
	C220.252930,117.188011 216.143311,102.969490 209.035568,89.358902 
	C209.772797,88.665848 210.547409,88.333862 211.919968,87.894318 
	C213.012711,87.527039 213.507507,87.267319 214.002304,87.007614 
z"/>
<path fill="#8F3415" opacity="1.000000" stroke="none" 
	d="
M214.367279,86.967468 
	C213.507507,87.267319 213.012711,87.527039 212.258041,87.891495 
	C212.375381,83.780243 208.808533,83.230431 206.204529,82.307884 
	C202.186493,80.884369 197.948608,80.081337 193.400970,79.006271 
	C195.186752,77.844490 197.375549,76.691536 199.782547,75.269836 
	C203.176758,74.189240 206.352768,73.377388 209.763855,72.289398 
	C213.054825,71.676910 216.110672,71.340561 219.584808,70.998138 
	C222.406006,71.293434 224.808914,71.594795 227.609146,71.934250 
	C230.961899,73.135628 233.058334,74.715942 230.732605,78.779236 
	C228.929062,80.515816 227.461609,81.753136 225.994156,82.990456 
	C223.806244,83.814087 221.618317,84.637718 219.214600,85.729538 
	C217.576599,86.307602 216.154419,86.617462 214.367279,86.967468 
z"/>
<path fill="#994E24" opacity="1.000000" stroke="none" 
	d="
M226.001892,83.374908 
	C227.461609,81.753136 228.929062,80.515816 230.688782,79.136703 
	C232.330719,81.537971 233.633072,84.107681 235.045868,86.615166 
	C236.062607,88.419701 237.226608,90.141266 238.677734,91.955544 
	C239.357758,94.073074 239.684967,96.134918 240.012787,99.070740 
	C240.009171,103.092789 240.120270,106.246223 239.974030,109.387672 
	C239.746933,114.265320 239.344604,119.134804 239.016571,124.007751 
	C238.389206,123.558899 237.363373,123.226547 237.193069,122.644066 
	C233.408295,109.699150 229.717926,96.726631 226.001892,83.374908 
z"/>
<path fill="#892D14" opacity="1.000000" stroke="none" 
	d="
M239.016693,124.473801 
	C239.344604,119.134804 239.746933,114.265320 239.974030,109.387672 
	C240.120270,106.246223 240.009171,103.092789 240.022217,99.477219 
	C240.466263,99.007095 240.901489,99.004494 241.663269,99.002838 
	C241.320419,115.814278 240.759995,132.630188 239.924988,149.432449 
	C239.615540,155.659561 238.661469,161.854645 238.008209,168.509277 
	C236.910461,169.238678 235.805878,169.523148 234.397949,169.980194 
	C235.087189,163.307755 236.286209,156.484726 237.018997,149.612000 
	C237.893494,141.410187 238.368668,133.165787 239.016693,124.473801 
z"/>
<path fill="#131515" opacity="1.000000" stroke="none" 
	d="
M222.626587,203.389679 
	C223.425171,201.118866 224.311722,199.257599 225.511093,197.248840 
	C225.823929,200.204498 225.823929,203.307663 225.823929,207.149765 
	C223.530029,208.281479 222.904938,206.364273 222.626587,203.389679 
z"/>
</svg>